<svg xmlns="http://www.w3.org/2000/svg" xmlns:xlink="http://www.w3.org/1999/xlink" width="416" height="255" viewBox="0 0 416 255"><defs><style>.a{fill:none;}.b{clip-path:url(#a);}.c,.d{fill:#17caff;}.c{opacity:0.25;}.e,.h{fill:#e6a665;}.f{fill:#f7d6b4;}.g{fill:#cc935a;}.g,.h{opacity:0.34;}.i{fill:#f2f2f2;}.j{fill:#404040;}.k{fill:#f0f6f7;}.l{fill:#416369;}.m{fill:#b4d9de;opacity:0.49;}.n{opacity:0.12;}.o{fill:#f1f1f2;}.p{fill:#fceee3;}.q{clip-path:url(#b);}.r{clip-path:url(#c);}.s{opacity:0.22;}.t{fill:#0099c6;}.u{fill:#383838;stroke:#fff;stroke-linecap:round;stroke-miterlimit:10;stroke-width:2.928px;}.v{fill:#077190;opacity:0.64;}.w{fill:#fff;}.x{fill:#ffce34;}</style><clipPath id="a"><rect class="a" width="416" height="255"/></clipPath><clipPath id="b"><rect class="a" width="100.065" height="37.94"/></clipPath><clipPath id="c"><rect class="a" width="81.388" height="110.1"/></clipPath></defs><g class="b"><path class="c" d="M0,0H416V255H0Z"/><g transform="translate(-907 -678)"><g transform="translate(935.242 775.507)"><path class="d" d="M173.592,139.941l-17.476,7.4,1.641-18.908L145.316,114.1l18.49-4.282,9.786-16.262,9.786,16.262,18.49,4.282-12.442,14.332,1.641,18.908Z" transform="translate(-145.316 -93.561)"/><path class="d" d="M185.381,139.941l-17.475,7.4,1.641-18.908L157.105,114.1l18.49-4.282,9.786-16.262,9.787,16.262,18.49,4.282-12.441,14.332,1.641,18.908Z" transform="translate(-81.178 -93.561)"/><path class="d" d="M197.17,139.941l-17.476,7.4,1.641-18.908L168.894,114.1l18.489-4.282,9.787-16.262,9.786,16.262,18.49,4.282L213,128.437l1.641,18.908Z" transform="translate(-17.04 -93.561)"/><path class="d" d="M208.959,139.941l-17.475,7.4,1.641-18.908L180.683,114.1l18.49-4.282,9.786-16.262,9.787,16.262,18.49,4.282-12.441,14.332,1.641,18.908Z" transform="translate(47.099 -93.561)"/><path class="d" d="M220.748,139.941l-17.476,7.4,1.641-18.908L192.472,114.1l18.489-4.282,9.787-16.262,9.786,16.262,18.49,4.282-12.442,14.332,1.641,18.908Z" transform="translate(111.237 -93.561)"/></g><g transform="translate(973.025 659.642)"><g transform="translate(67.975 67.619)"><g transform="translate(0 15.608)"><g transform="translate(25.902 52.329)"><path class="e" d="M129.548,205.15s7.231-33.242,24.592-35.339c2.835-.342-.608,41.517-.608,41.517l-20.414,24.236Z" transform="translate(-114.515 -169.809)"/><path class="f" d="M165.442,299.129l13.686-16.292,29.145-37.5,10-17.682-67.809-3.035-35.366,54.9-8.158,15.146,35.6,11.359,15.517,9.939Z" transform="translate(-106.936 -188.181)"/></g><path class="f" d="M257.97,107.729l-8.544,8.008a9.616,9.616,0,0,1-13.592-.44h0a9.615,9.615,0,0,1,.44-13.592l8.544-8.008a9.615,9.615,0,0,1,13.592.44h0A9.616,9.616,0,0,1,257.97,107.729Z" transform="translate(-123.366 -91.097)"/><path class="g" d="M255.748,246.512l10-17.682-17.165-.707Z" transform="translate(-128.509 -137.025)"/><path class="h" d="M155.386,281.043l36.932,7.229a7.73,7.73,0,0,1,6.482,8.71h0l13.249-17.047Z" transform="translate(-97.273 -154.391)"/><g transform="translate(0 150.712)"><path class="i" d="M89.638,338.872l8.4-18.987a3.517,3.517,0,0,1,4.692-1.768l52.334,24.234a3.516,3.516,0,0,1,1.826,4.392l-2.747,7.552Z" transform="translate(-75.236 -317.792)"/><path class="j" d="M149.3,363.219h0a1.823,1.823,0,0,0-1.148-2.279L82.573,338.563a1.823,1.823,0,0,0-2.205.882L67.975,363.219Z" transform="translate(-67.975 -324.721)"/></g></g><g transform="translate(48.024)"><rect class="k" width="81.388" height="142.259" rx="16.655"/><rect class="l" width="81.388" height="110.1" transform="translate(0 14.987)"/><path class="m" d="M204.174,80.68l-13.671.067a1.259,1.259,0,0,1-1.265-1.262h0a1.274,1.274,0,0,1,1.265-1.274l13.671-.067a1.259,1.259,0,0,1,1.265,1.262h0A1.273,1.273,0,0,1,204.174,80.68Z" transform="translate(-156.644 -71.147)"/><g class="n" transform="translate(4.34 19.885)"><path class="o" d="M154.227,100.289H148.12a1.38,1.38,0,0,1-1.38-1.38h0a1.38,1.38,0,0,1,1.38-1.38h6.106a1.38,1.38,0,0,1,1.38,1.38h0A1.38,1.38,0,0,1,154.227,100.289Z" transform="translate(-146.74 -97.529)"/><path class="o" d="M164.947,100.289h-2.083a1.38,1.38,0,0,1-1.38-1.38h0a1.38,1.38,0,0,1,1.38-1.38h2.083a1.38,1.38,0,0,1,1.38,1.38h0A1.38,1.38,0,0,1,164.947,100.289Z" transform="translate(-151.682 -97.529)"/><path class="o" d="M251.562,100.289H246.2a1.38,1.38,0,0,1-1.38-1.38h0a1.38,1.38,0,0,1,1.38-1.38h5.36a1.38,1.38,0,0,1,1.38,1.38h0A1.38,1.38,0,0,1,251.562,100.289Z" transform="translate(-179.615 -97.529)"/></g><circle class="m" cx="5.626" cy="5.626" r="5.626" transform="translate(35.068 128.246)"/></g><g transform="translate(116.689 45.187)"><rect class="f" width="20.138" height="19.232" rx="9.616" transform="matrix(0.844, -0.536, 0.536, 0.844, 0, 52.495)"/><rect class="f" width="20.138" height="19.232" rx="9.616" transform="matrix(0.844, -0.536, 0.536, 0.844, 0, 31.558)"/><rect class="f" width="20.138" height="19.232" rx="9.616" transform="matrix(0.844, -0.536, 0.536, 0.844, 0, 10.799)"/><ellipse class="p" cx="3.092" cy="6.802" rx="3.092" ry="6.802" transform="translate(10.172 8.404) rotate(-27.517)"/><path class="p" d="M267.543,181.719c1.735,3.332,1.915,6.673.4,7.461s-4.148-1.272-5.884-4.6-1.915-6.673-.4-7.461S265.807,178.388,267.543,181.719Z" transform="translate(-249.238 -149.451)"/><ellipse class="p" cx="3.599" cy="6.802" rx="3.599" ry="6.802" transform="translate(7.771 50.607) rotate(-27.517)"/></g><g transform="translate(15.124 60.464)"><path class="f" d="M106.662,263.435l-15.087-51.54a13.082,13.082,0,0,1,.594-10.615l19.9-38.755a7.284,7.284,0,0,1,11.468-1.98h0v30.144l-4,20.045,9.864,29.84Z" transform="translate(-90.724 -158.567)"/><path class="p" d="M113.1,176.525l7.3-14.221,2.363,4.385-3.71,7.5a8.762,8.762,0,0,1-5.955,2.335Z" transform="translate(-98.224 -159.82)"/></g></g><g transform="translate(0 -12)"><g class="q" transform="translate(97.322 90.767)"><g transform="translate(-97.322 -90.767)"><g transform="translate(115.999 91.606)"><g class="r"><path class="s" d="M193.271,124.079H170.949l-3.377,2.661-6.361-2.661H118.662a2.535,2.535,0,0,1-2.536-2.536V100.886a2.536,2.536,0,0,1,2.536-2.536h74.609a2.536,2.536,0,0,1,2.536,2.536v20.657A2.535,2.535,0,0,1,193.271,124.079Z" transform="translate(-132.138 -92.907)"/></g></g><g transform="translate(97.322 90.767)"><path class="t" d="M187.759,116.11H166.644l-1.061,5.337-8.436-5.337h-44a2.536,2.536,0,0,1-2.536-2.536V89.931a2.536,2.536,0,0,1,2.536-2.536h74.61a2.536,2.536,0,0,1,2.536,2.536v23.644A2.536,2.536,0,0,1,187.759,116.11Z" transform="translate(-110.614 -87.395)"/><g transform="translate(4.473 6.804)"><g transform="translate(19.359 0.995)"><line class="u" x2="48.804" transform="translate(0 5.87)"/><line class="u" x2="48.804" transform="translate(0 8.81)"/><line class="u" x2="48.804" transform="translate(0 11.75)"/><line class="u" x2="36.908" transform="translate(0 14.69)"/><g transform="translate(0)"><path class="u" d="M146.461,99.127" transform="translate(-146.461 -99.127)"/><path class="u" d="M146.461,103.55" transform="translate(-146.461 -100.609)"/></g></g><ellipse class="v" cx="7.542" cy="7.542" rx="7.542" ry="7.542" transform="translate(0 15.083) rotate(-89.781)"/><path class="w" d="M125.053,104.73a1.986,1.986,0,1,1,1.986,1.986A1.987,1.987,0,0,1,125.053,104.73Zm5.3,4.628-.267-.969a4.057,4.057,0,0,0-.523-1.27.806.806,0,0,0-1.061-.275,3.022,3.022,0,0,1-2.933,0,.806.806,0,0,0-1.061.275,4.057,4.057,0,0,0-.523,1.27l-.267.969a.9.9,0,0,0,.876,1.142h4.883A.9.9,0,0,0,130.357,109.359Z" transform="translate(-119.469 -99.344)"/></g><g transform="translate(23.071 4.099)"><path class="x" d="M148.235,98.348l-1.8.764.169-1.952-1.284-1.479,1.909-.442,1.01-1.679,1.01,1.679,1.909.442-1.284,1.479.169,1.952Z" transform="translate(-145.316 -93.561)"/><path class="x" d="M160.024,98.348l-1.8.764.169-1.952-1.284-1.479,1.909-.442,1.01-1.679,1.01,1.679,1.909.442-1.284,1.479.169,1.952Z" transform="translate(-149.268 -93.561)"/><path class="x" d="M171.813,98.348l-1.8.764.169-1.952-1.284-1.479,1.909-.442,1.01-1.679,1.01,1.679,1.909.442-1.284,1.479.169,1.952Z" transform="translate(-153.219 -93.561)"/><path class="x" d="M183.6,98.348l-1.8.764.169-1.952-1.284-1.479,1.909-.442,1.01-1.679,1.01,1.679,1.909.442-1.284,1.479.169,1.952Z" transform="translate(-157.17 -93.561)"/><path class="x" d="M195.391,98.348l-1.8.764.169-1.952-1.284-1.479,1.909-.442,1.01-1.679,1.01,1.679,1.909.442-1.284,1.479.169,1.952Z" transform="translate(-161.122 -93.561)"/></g></g></g></g></g><g transform="translate(0 28)"><g class="q" transform="translate(97.322 90.767)"><g transform="translate(-97.322 -90.767)"><g transform="translate(115.999 91.606)"><g class="r"><path class="s" d="M193.271,124.079H170.949l-3.377,2.661-6.361-2.661H118.662a2.535,2.535,0,0,1-2.536-2.536V100.886a2.536,2.536,0,0,1,2.536-2.536h74.609a2.536,2.536,0,0,1,2.536,2.536v20.657A2.535,2.535,0,0,1,193.271,124.079Z" transform="translate(-132.138 -92.907)"/></g></g><g transform="translate(97.322 90.767)"><path class="t" d="M187.759,116.11H166.644l-1.061,5.337-8.436-5.337h-44a2.536,2.536,0,0,1-2.536-2.536V89.931a2.536,2.536,0,0,1,2.536-2.536h74.61a2.536,2.536,0,0,1,2.536,2.536v23.644A2.536,2.536,0,0,1,187.759,116.11Z" transform="translate(-110.614 -87.395)"/><g transform="translate(4.473 6.804)"><g transform="translate(19.359 0.995)"><line class="u" x2="48.804" transform="translate(0 5.87)"/><line class="u" x2="48.804" transform="translate(0 8.81)"/><line class="u" x2="48.804" transform="translate(0 11.75)"/><line class="u" x2="36.908" transform="translate(0 14.69)"/><g transform="translate(0)"><path class="u" d="M146.461,99.127" transform="translate(-146.461 -99.127)"/><path class="u" d="M146.461,103.55" transform="translate(-146.461 -100.609)"/></g></g><ellipse class="v" cx="7.542" cy="7.542" rx="7.542" ry="7.542" transform="translate(0 15.083) rotate(-89.781)"/><path class="w" d="M125.053,104.73a1.986,1.986,0,1,1,1.986,1.986A1.987,1.987,0,0,1,125.053,104.73Zm5.3,4.628-.267-.969a4.057,4.057,0,0,0-.523-1.27.806.806,0,0,0-1.061-.275,3.022,3.022,0,0,1-2.933,0,.806.806,0,0,0-1.061.275,4.057,4.057,0,0,0-.523,1.27l-.267.969a.9.9,0,0,0,.876,1.142h4.883A.9.9,0,0,0,130.357,109.359Z" transform="translate(-119.469 -99.344)"/></g><g transform="translate(23.071 4.099)"><path class="x" d="M148.235,98.348l-1.8.764.169-1.952-1.284-1.479,1.909-.442,1.01-1.679,1.01,1.679,1.909.442-1.284,1.479.169,1.952Z" transform="translate(-145.316 -93.561)"/><path class="x" d="M160.024,98.348l-1.8.764.169-1.952-1.284-1.479,1.909-.442,1.01-1.679,1.01,1.679,1.909.442-1.284,1.479.169,1.952Z" transform="translate(-149.268 -93.561)"/><path class="x" d="M171.813,98.348l-1.8.764.169-1.952-1.284-1.479,1.909-.442,1.01-1.679,1.01,1.679,1.909.442-1.284,1.479.169,1.952Z" transform="translate(-153.219 -93.561)"/><path class="x" d="M183.6,98.348l-1.8.764.169-1.952-1.284-1.479,1.909-.442,1.01-1.679,1.01,1.679,1.909.442-1.284,1.479.169,1.952Z" transform="translate(-157.17 -93.561)"/><path class="x" d="M195.391,98.348l-1.8.764.169-1.952-1.284-1.479,1.909-.442,1.01-1.679,1.01,1.679,1.909.442-1.284,1.479.169,1.952Z" transform="translate(-161.122 -93.561)"/></g></g></g></g></g><g transform="translate(0 63)"><g class="q" transform="translate(97.322 90.767)"><g transform="translate(-97.322 -90.767)"><g transform="translate(115.999 91.606)"><g class="r"><path class="s" d="M193.271,124.079H170.949l-3.377,2.661-6.361-2.661H118.662a2.535,2.535,0,0,1-2.536-2.536V100.886a2.536,2.536,0,0,1,2.536-2.536h74.609a2.536,2.536,0,0,1,2.536,2.536v20.657A2.535,2.535,0,0,1,193.271,124.079Z" transform="translate(-132.138 -92.907)"/></g></g><g transform="translate(97.322 90.767)"><path class="t" d="M187.759,116.11H166.644l-1.061,5.337-8.436-5.337h-44a2.536,2.536,0,0,1-2.536-2.536V89.931a2.536,2.536,0,0,1,2.536-2.536h74.61a2.536,2.536,0,0,1,2.536,2.536v23.644A2.536,2.536,0,0,1,187.759,116.11Z" transform="translate(-110.614 -87.395)"/><g transform="translate(4.473 6.804)"><g transform="translate(19.359 0.995)"><line class="u" x2="48.804" transform="translate(0 5.87)"/><line class="u" x2="48.804" transform="translate(0 8.81)"/><line class="u" x2="48.804" transform="translate(0 11.75)"/><line class="u" x2="36.908" transform="translate(0 14.69)"/><g transform="translate(0)"><path class="u" d="M146.461,99.127" transform="translate(-146.461 -99.127)"/><path class="u" d="M146.461,103.55" transform="translate(-146.461 -100.609)"/></g></g><ellipse class="v" cx="7.542" cy="7.542" rx="7.542" ry="7.542" transform="translate(0 15.083) rotate(-89.781)"/><path class="w" d="M125.053,104.73a1.986,1.986,0,1,1,1.986,1.986A1.987,1.987,0,0,1,125.053,104.73Zm5.3,4.628-.267-.969a4.057,4.057,0,0,0-.523-1.27.806.806,0,0,0-1.061-.275,3.022,3.022,0,0,1-2.933,0,.806.806,0,0,0-1.061.275,4.057,4.057,0,0,0-.523,1.27l-.267.969a.9.9,0,0,0,.876,1.142h4.883A.9.9,0,0,0,130.357,109.359Z" transform="translate(-119.469 -99.344)"/></g><g transform="translate(23.071 4.099)"><path class="x" d="M148.235,98.348l-1.8.764.169-1.952-1.284-1.479,1.909-.442,1.01-1.679,1.01,1.679,1.909.442-1.284,1.479.169,1.952Z" transform="translate(-145.316 -93.561)"/><path class="x" d="M160.024,98.348l-1.8.764.169-1.952-1.284-1.479,1.909-.442,1.01-1.679,1.01,1.679,1.909.442-1.284,1.479.169,1.952Z" transform="translate(-149.268 -93.561)"/><path class="x" d="M171.813,98.348l-1.8.764.169-1.952-1.284-1.479,1.909-.442,1.01-1.679,1.01,1.679,1.909.442-1.284,1.479.169,1.952Z" transform="translate(-153.219 -93.561)"/><path class="x" d="M183.6,98.348l-1.8.764.169-1.952-1.284-1.479,1.909-.442,1.01-1.679,1.01,1.679,1.909.442-1.284,1.479.169,1.952Z" transform="translate(-157.17 -93.561)"/><path class="x" d="M195.391,98.348l-1.8.764.169-1.952-1.284-1.479,1.909-.442,1.01-1.679,1.01,1.679,1.909.442-1.284,1.479.169,1.952Z" transform="translate(-161.122 -93.561)"/></g></g></g></g></g></g></g></g></svg>