<svg xmlns="http://www.w3.org/2000/svg" xmlns:xlink="http://www.w3.org/1999/xlink" width="416" height="255" viewBox="0 0 416 255"><defs><style>.a{fill:none;}.b{clip-path:url(#a);}.c{fill:#17caff;opacity:0.25;}.d{clip-path:url(#b);}.e,.k{fill:#f1f2f2;}.f{fill:#333132;}.g{fill:#a1dbe4;}.h{fill:#7bc7cc;}.i{fill:#fff;}.j{fill:#c5e8f1;}.k{opacity:0.7;}.l{fill:#a4a6a8;}.m{fill:#bcbec0;}.n{fill:#cbccce;}.o{fill:#dcddde;}.p{clip-path:url(#c);}.aa,.ab,.ac,.ad,.ae,.af,.ag,.ah,.ai,.aj,.ak,.am,.an,.ao,.q,.r,.s,.t,.u,.v,.w,.x,.y,.z{fill-rule:evenodd;}.q{fill:url(#d);}.r{fill:#66c4b7;}.s{fill:#8bd9ce;}.t{fill:url(#e);}.u{fill:url(#f);}.v{fill:url(#g);}.w{fill:url(#h);}.x{fill:url(#i);}.y{fill:#fefefe;}.z{fill:url(#j);}.aa{fill:url(#l);}.ab{fill:url(#m);}.ac{fill:#58472e;}.ad{fill:url(#n);}.ae{fill:url(#o);}.af{fill:url(#p);}.ag{fill:url(#q);}.ah{fill:#904b49;}.ai{fill:#d99867;}.aj{fill:url(#r);}.ak{fill:url(#s);}.al{fill:#00a19e;}.am{fill:#aae3db;}.an{fill:#eeedec;}.ao{fill:#9d9e9e;}</style><clipPath id="a"><rect class="a" width="416" height="255"/></clipPath><clipPath id="b"><rect class="a" width="167.824" height="153.636"/></clipPath><clipPath id="c"><rect class="a" width="131.869" height="147.762"/></clipPath><linearGradient id="d" x1="0.343" y1="-0.044" x2="0.548" y2="0.466" gradientUnits="objectBoundingBox"><stop offset="0" stop-color="#f9b776"/><stop offset="1" stop-color="#f7cf7a"/></linearGradient><linearGradient id="e" x1="0.458" y1="0.108" x2="0.595" y2="0.467" gradientUnits="objectBoundingBox"><stop offset="0" stop-color="#ea9641"/><stop offset="1" stop-color="#f7cf7a"/></linearGradient><linearGradient id="f" x1="0.183" y1="0.45" x2="0.858" y2="0.547" xlink:href="#d"/><linearGradient id="g" x1="0.085" y1="0.488" x2="0.832" y2="0.502" gradientUnits="objectBoundingBox"><stop offset="0" stop-color="#512425"/><stop offset="0.22" stop-color="#512425"/><stop offset="0.77" stop-color="#8c4d17"/><stop offset="1" stop-color="#8c4d17"/></linearGradient><linearGradient id="h" x1="0.1" y1="0.478" x2="0.941" y2="0.515" xlink:href="#d"/><linearGradient id="i" x1="-0.258" y1="0.49" x2="1.231" y2="0.503" gradientUnits="objectBoundingBox"><stop offset="0" stop-color="#e97b30"/><stop offset="1" stop-color="#f7cf7a"/></linearGradient><linearGradient id="j" x1="0.591" y1="0.053" x2="0.407" y2="0.956" gradientUnits="objectBoundingBox"><stop offset="0" stop-color="#2d596d"/><stop offset="0.17" stop-color="#2d596d"/><stop offset="1" stop-color="#4f9f90"/></linearGradient><linearGradient id="l" x1="0.596" y1="2.596" x2="0.458" y2="0.158" xlink:href="#g"/><linearGradient id="m" x1="0.636" y1="2.153" x2="0.421" y2="-0.034" xlink:href="#g"/><linearGradient id="n" x1="-0.274" y1="0.469" x2="1.947" y2="0.559" xlink:href="#g"/><linearGradient id="o" x1="1.273" y1="0.538" x2="-0.929" y2="0.434" xlink:href="#g"/><linearGradient id="p" x1="0.902" y1="0.427" x2="-0.052" y2="0.556" gradientUnits="objectBoundingBox"><stop offset="0" stop-color="#e98f55"/><stop offset="0.99" stop-color="#f6ce85"/><stop offset="1" stop-color="#f6ce85"/></linearGradient><linearGradient id="q" x1="0.415" y1="0.076" x2="0.628" y2="1.123" xlink:href="#g"/><linearGradient id="r" x1="-0.191" y1="2.148" x2="0.693" y2="0.177" xlink:href="#d"/><linearGradient id="s" x1="0.44" y1="0.909" x2="0.607" y2="-0.515" xlink:href="#d"/></defs><g class="b"><path class="c" d="M0,0H416V255H0Z"/><g transform="translate(90.502 62.951)"><path class="e" d="M316.439,656.013H108.506a32.231,32.231,0,0,1-9.678-1.222,4.053,4.053,0,0,0,3.375,6.3H322.736a4.052,4.052,0,0,0,3.334-6.355A33.634,33.634,0,0,1,316.439,656.013Z" transform="translate(-95.721 -485.159)"/><path class="f" d="M154.036,326.043H331.55a7.075,7.075,0,0,1,.973.066,5.99,5.99,0,0,0,1.023-3.348V208.518a5.985,5.985,0,0,0-5.979-5.983H156.034a5.983,5.983,0,0,0-5.988,5.983V322.761a5.95,5.95,0,0,0,1.4,3.833A5.988,5.988,0,0,1,154.036,326.043Z" transform="translate(-128.156 -202.535)"/><rect class="g" width="167.824" height="105.395" transform="translate(30.274 9.187)"/><g transform="translate(30.273 23.831)"><path class="h" d="M184.612,266.085H172.4v76.654h12.211a2.846,2.846,0,0,0,2.833-2.86V268.945A2.847,2.847,0,0,0,184.612,266.085Z" transform="translate(-172.401 -266.085)"/><g transform="translate(4.004 36.046)"><path class="i" d="M189.966,363.67a1.619,1.619,0,0,0-2.4-1.227,3.247,3.247,0,0,0-1.043,1.393,3.252,3.252,0,0,0-1.043-1.393,1.619,1.619,0,0,0-2.4,1.227,3.422,3.422,0,0,0,.951,2.292,9.631,9.631,0,0,0,1.3,1.365c.076.064,1.141.989,1.189.981h0c.049.009,1.114-.916,1.19-.981a9.674,9.674,0,0,0,1.3-1.365A3.42,3.42,0,0,0,189.966,363.67Z" transform="translate(-183.079 -362.207)"/></g><g transform="translate(4.229 5.118)"><path class="i" d="M189.352,279.733a1.753,1.753,0,1,0,1.755,1.753A1.755,1.755,0,0,0,189.352,279.733Z" transform="translate(-186.13 -279.733)"/><path class="i" d="M188.174,288.843a2.059,2.059,0,0,1-2.543,0,3.532,3.532,0,0,0-1.952,3.224c0,.4.322.707.821.931a5.639,5.639,0,0,1,.417-1.97.174.174,0,1,1,.322.135,5.191,5.191,0,0,0-.384,1.968,7.431,7.431,0,0,0,4.11,0,5.158,5.158,0,0,0-.383-1.964.174.174,0,1,1,.322-.135,5.649,5.649,0,0,1,.417,1.963c.489-.223.8-.533.8-.924A3.535,3.535,0,0,0,188.174,288.843Z" transform="translate(-183.679 -285.427)"/></g><g transform="translate(3.773 49.792)"><path class="i" d="M188.659,404.081a2.786,2.786,0,0,0,1.161-2.2c0-1.663-1.65-3.016-3.679-3.016s-3.679,1.353-3.679,3.016,1.65,3.015,3.679,3.015a4.82,4.82,0,0,0,.5-.027,5.679,5.679,0,0,0,2.042.686.435.435,0,0,0,.431-.215.422.422,0,0,0-.073-.462A2.655,2.655,0,0,1,188.659,404.081Z" transform="translate(-182.463 -398.865)"/><g transform="translate(1.802 2.703)"><path class="h" d="M195.331,406.073a.449.449,0,1,0,.449.45A.45.45,0,0,0,195.331,406.073Z" transform="translate(-192.028 -406.073)"/><path class="h" d="M191.525,406.073a.449.449,0,1,0,.449.45A.45.45,0,0,0,191.525,406.073Z" transform="translate(-189.649 -406.073)"/><path class="h" d="M187.719,406.073a.449.449,0,1,0,.448.45A.451.451,0,0,0,187.719,406.073Z" transform="translate(-187.269 -406.073)"/></g></g><g transform="translate(3.702 65.924)"><path class="i" d="M188.788,442.589a5.762,5.762,0,0,0-5.531,0s-1.184.693-.956,1.563a1.427,1.427,0,0,0,.293.56.512.512,0,0,0,.484.13c.228-.036.435-.062.683-.115a.98.98,0,0,0,.62-.265.97.97,0,0,0,.113-.5c.019-.213.04-.429.06-.641a4.6,4.6,0,0,1,2.937,0c.021.212.042.429.061.641a.652.652,0,0,0,.733.762c.247.052.454.079.682.115a.511.511,0,0,0,.483-.13,1.432,1.432,0,0,0,.294-.56C189.972,443.282,188.788,442.589,188.788,442.589Z" transform="translate(-182.272 -441.882)"/></g><g transform="translate(3.625 22.638)"><path class="j" d="M189.938,327.861a1.407,1.407,0,0,1-1.407,1.407h-5.057a1.407,1.407,0,0,1-1.407-1.407h0a1.407,1.407,0,0,1,1.407-1.407h5.057a1.407,1.407,0,0,1,1.407,1.407Z" transform="translate(-182.067 -326.454)"/><path class="i" d="M185.892,326.454h-2.418a1.407,1.407,0,1,0,0,2.814h2.418Z" transform="translate(-182.067 -326.454)"/></g></g><path class="k" d="M340.226,332.428H172.4l167.824-105.4Z" transform="translate(-142.128 -217.846)"/><g transform="translate(1.078 168.317)"><path class="l" d="M322.979,652.651H97.463a3.949,3.949,0,0,1-2.915-1.271c1.218,1.9,7.145,2.537,11.707,2.537H314.187c3.62,0,9.917-.6,11.538-2.366A3.948,3.948,0,0,1,322.979,652.651Z" transform="translate(-94.548 -651.381)"/></g><path class="m" d="M325.165,631.646a3.988,3.988,0,0,1-3.983,3.932H95.665a3.924,3.924,0,0,1-.8-.082,2.884,2.884,0,0,1-.3-.092,4.006,4.006,0,0,1-.442-.138,4.279,4.279,0,0,1-.427-.228c-.08-.045-.167-.084-.246-.133a3.93,3.93,0,0,1-.513-.421c-.022-.021-.049-.036-.074-.058a3.969,3.969,0,0,1-1.182-2.779l-.007,0v4.674a3.986,3.986,0,0,0,3.993,3.985H321.182a3.985,3.985,0,0,0,3.988-3.985v-4.69S325.165,631.644,325.165,631.646Z" transform="translate(-91.672 -470.723)"/><path class="n" d="M351.291,642.148a4,4,0,0,0,3.92,3.244h30.4a3.983,3.983,0,0,0,3.916-3.244Z" transform="translate(-253.934 -477.293)"/><path class="o" d="M301.054,535.872c-1.582-2.271-3.116-3.991-5.988-3.982H117.552c-2.2,0-4.213.95-5.982,3.982l-19.9,33.376a3.992,3.992,0,0,0,3.993,3.988H321.182a3.991,3.991,0,0,0,3.988-3.988Z" transform="translate(-91.672 -408.382)"/><path class="n" d="M335.424,555.335c.532,1.28-.891,2.048-1.989,2.048h-185.4c-1.1,0-1.564-.866-.892-2.048l8.867-15.626c.716-1.289.889-2.051,1.988-2.051H323.33c.765-.029,1.43,1.151,1.99,2.051Z" transform="translate(-126.148 -411.987)"/><path class="m" d="M374.924,608.337a1.2,1.2,0,0,1-1.2,1.194H297.243a1.192,1.192,0,0,1-1.192-1.194l2.273-13.28a1.2,1.2,0,0,1,1.2-1.2h70.573a1.2,1.2,0,0,1,1.2,1.2Z" transform="translate(-219.409 -447.111)"/><g transform="translate(23.645 125.84)"><path class="f" d="M361.242,581.513H299.447l.871-3.664h60.344Z" transform="translate(-245.177 -562.946)"/><path class="f" d="M270.4,581.513H257.107l1.516-3.664h12.748Z" transform="translate(-218.715 -562.946)"/><path class="f" d="M233.15,581.513H222.919l1.595-3.664h10.148Z" transform="translate(-197.347 -562.946)"/><path class="f" d="M199.776,581.513h-9.837l1.6-3.664h9.83Z" transform="translate(-176.735 -562.946)"/><path class="f" d="M164.8,581.513H154.727l2.008-3.664h9.872Z" transform="translate(-154.727 -562.946)"/><path class="f" d="M185.861,571.821H160.587l1.683-2.989h24.874Z" transform="translate(-158.389 -557.31)"/><path class="f" d="M184.022,563.615H165.465l1.453-2.65H185.2Z" transform="translate(-161.438 -552.393)"/><path class="f" d="M185.194,554.886h-15.22l1.616-2.946h14.885Z" transform="translate(-164.257 -546.752)"/><path class="f" d="M183.536,546.717h-8.9l1.5-2.743h8.728Z" transform="translate(-167.172 -541.774)"/><path class="f" d="M214.253,546.717h-8.81l1.419-2.743h8.773Z" transform="translate(-186.425 -541.774)"/><path class="f" d="M245.124,546.717h-8.618l1.224-2.743h8.449Z" transform="translate(-205.839 -541.774)"/><path class="f" d="M277.031,546.717h-9.084l1.09-2.743h8.771Z" transform="translate(-225.49 -541.774)"/><path class="f" d="M308.278,546.717h-9.321l.664-2.743h9.067Z" transform="translate(-244.871 -541.774)"/><path class="f" d="M339.416,546.717h-9.354l.359-2.743h9.054Z" transform="translate(-264.311 -541.774)"/><path class="f" d="M370.675,546.717h-9.011l.018-2.743h8.994Z" transform="translate(-284.063 -541.774)"/><path class="f" d="M401.832,546.717h-9.07l.016-2.743h9.054Z" transform="translate(-303.499 -541.774)"/><path class="f" d="M432.44,546.717h-9.22v-2.743h9.048Z" transform="translate(-322.535 -541.774)"/><path class="f" d="M463.652,546.717h-9.17l-.218-2.743h9.047Z" transform="translate(-341.938 -541.774)"/><path class="f" d="M495.029,546.717h-9.3l-.374-2.743H494.4Z" transform="translate(-361.37 -541.774)"/><path class="f" d="M525.584,546.717h-9.31l-.651-2.743h9.157Z" transform="translate(-380.286 -541.774)"/><path class="f" d="M556.511,546.717H547.34l-.761-2.743h9.053Z" transform="translate(-399.634 -541.774)"/><path class="f" d="M593.345,546.717H578.026l-1-2.743h14.592Z" transform="translate(-418.663 -541.774)"/><path class="f" d="M228.107,555.141h-8.618l1.223-2.73h8.657Z" transform="translate(-195.203 -547.047)"/><path class="f" d="M258.654,555.141h-8.622l1.226-2.73h8.454Z" transform="translate(-214.293 -547.047)"/><path class="f" d="M290.726,555.141h-8.983l1-2.73h8.637Z" transform="translate(-234.111 -547.047)"/><path class="f" d="M322.9,555.141H313.7l.61-2.73h8.6Z" transform="translate(-254.082 -547.047)"/><path class="f" d="M354.642,555.141h-9.069l.019-2.73h9.05Z" transform="translate(-274.006 -547.047)"/><path class="f" d="M386.4,555.141h-9.074l.016-2.73H386.4Z" transform="translate(-293.853 -547.047)"/><path class="f" d="M417.543,555.141h-9.119l.015-2.73h9.052Z" transform="translate(-313.288 -547.047)"/><path class="f" d="M449.336,555.141h-9.36l-.028-2.73H449Z" transform="translate(-332.99 -547.047)"/><path class="f" d="M480.967,555.141h-9.6l-.376-2.73h9.448Z" transform="translate(-352.392 -547.047)"/><path class="f" d="M514.042,555.141h-9.216l-.625-2.73h9.054Z" transform="translate(-373.148 -547.047)"/><path class="f" d="M545.9,555.141h-9.3l-.781-2.73h9.053Z" transform="translate(-392.91 -547.047)"/><path class="f" d="M576.834,555.141h-9.365l-.96-2.73h9.052Z" transform="translate(-412.09 -547.047)"/><path class="f" d="M608.156,555.141h-9.438l-1.189-2.73h8.9Z" transform="translate(-431.478 -547.047)"/><path class="f" d="M231.47,563.449H222.1l1.278-2.749h9.475Z" transform="translate(-196.835 -552.228)"/><path class="f" d="M264.543,563.449h-9.321l1.391-2.749h8.8Z" transform="translate(-217.536 -552.228)"/><path class="f" d="M297.218,563.449h-9.361l.817-2.749h9.007Z" transform="translate(-237.933 -552.228)"/><path class="f" d="M330.094,563.465h-9.812l.483-2.74h9.329Z" transform="translate(-258.198 -552.244)"/><path class="f" d="M362.712,563.465h-9.343l.021-2.74h9.322Z" transform="translate(-278.878 -552.244)"/><rect class="f" width="9.387" height="2.74" transform="translate(86.596 8.482)"/><path class="f" d="M426.65,563.465h-9.508l.018-2.74h9.39Z" transform="translate(-318.736 -552.244)"/><path class="f" d="M459.118,563.465h-9.59l-.152-2.74h9.391Z" transform="translate(-338.882 -552.244)"/><path class="f" d="M491.659,563.465h-9.642l-.387-2.74h9.384Z" transform="translate(-359.041 -552.244)"/><path class="f" d="M523.687,563.465H514l-.688-2.74H522.7Z" transform="translate(-378.845 -552.244)"/><path class="f" d="M556.719,563.465h-9.494l-.98-2.74h9.276Z" transform="translate(-399.426 -552.244)"/><path class="f" d="M597.994,563.465h-18.66l-1.207-2.74h18.137Z" transform="translate(-419.352 -552.244)"/><path class="f" d="M245.569,572.225H236.2l1.276-2.747h9.242Z" transform="translate(-205.646 -557.714)"/><path class="f" d="M278.972,572.225h-9.749l1.028-2.747h9.515Z" transform="translate(-226.287 -557.714)"/><path class="f" d="M312.684,572.225H303.1l.8-2.747h9.006Z" transform="translate(-247.457 -557.714)"/><path class="f" d="M345.871,572.239l-9.44.093.112-2.832h9.389Z" transform="translate(-268.292 -557.728)"/><rect class="f" width="9.347" height="2.739" transform="translate(80.583 11.772)"/><rect class="f" width="9.344" height="2.739" transform="translate(92.674 11.772)"/><path class="f" d="M444.285,572.239h-9.574l-.165-2.739h9.379Z" transform="translate(-329.614 -557.728)"/><path class="f" d="M477.9,572.239h-9.669l-.4-2.739h9.386Z" transform="translate(-350.419 -557.728)"/><path class="f" d="M483.259,581.721H470.028l-.6-3.539h12.675Z" transform="translate(-351.418 -563.154)"/><path class="f" d="M522.419,581.721h-10.3l-1.184-3.539H521Z" transform="translate(-377.355 -563.154)"/><path class="f" d="M557.15,584.214h-9.937l-.7-2.043H556Z" transform="translate(-399.59 -565.647)"/><path class="f" d="M625.25,584.214h-9.837l-1.086-2.043h9.631Z" transform="translate(-441.977 -565.647)"/><path class="f" d="M589.234,581.555H578.889l-1.786-3.638h10.283Z" transform="translate(-418.712 -562.988)"/><path class="f" d="M511.41,572.239h-9.482l-.754-2.739h9.392Z" transform="translate(-371.257 -557.728)"/><path class="f" d="M544.356,572.239h-9.6l-.792-2.739h9.383Z" transform="translate(-391.752 -557.728)"/><path class="f" d="M592.257,572.239h-25.44l-1.185-2.739h24.9Z" transform="translate(-411.542 -557.728)"/><path class="f" d="M188.035,539.913h-8.814l.991-1.806h8.795Z" transform="translate(-170.035 -538.107)"/><path class="f" d="M218.207,539.913h-8.674l.8-1.806h8.674Z" transform="translate(-188.981 -538.107)"/><path class="f" d="M249.922,539.913h-9.07l.8-1.806h9.07Z" transform="translate(-208.555 -538.107)"/><path class="f" d="M281.825,539.913h-9.471l.8-1.806h9.067Z" transform="translate(-228.244 -538.107)"/><path class="f" d="M313.527,539.913h-9.283l.4-1.806h9.068Z" transform="translate(-248.174 -538.107)"/><path class="f" d="M346.353,539.913h-9.2l.129-1.806h9.072Z" transform="translate(-268.743 -538.107)"/><rect class="f" width="9.075" height="1.806" transform="translate(80.399)"/><rect class="f" width="9.068" height="1.806" transform="translate(92.061)"/><path class="f" d="M440.6,539.913h-9.143v-1.806h8.957Z" transform="translate(-327.682 -538.107)"/><path class="f" d="M472.635,539.913h-9.366l-.212-1.806h9.185Z" transform="translate(-347.433 -538.107)"/><path class="f" d="M504.32,539.913h-9.064l-.4-1.806h9.076Z" transform="translate(-367.307 -538.107)"/><path class="f" d="M535.46,539.913h-9.638l-.4-1.806h9.468Z" transform="translate(-386.411 -538.107)"/><path class="f" d="M567.9,539.913h-9.218l-.553-1.806h9.07Z" transform="translate(-406.854 -538.107)"/><path class="f" d="M599.163,539.913h-8.871l-.8-1.806h8.524Z" transform="translate(-426.457 -538.107)"/></g></g><g transform="translate(243.419 15.146)"><path class="i" d="M536.489,75.055c-20.422,0-37.037,13.247-37.037,29.53,0,8.62,4.732,16.8,12.984,22.435a1.405,1.405,0,0,1,.577,1.48,35.648,35.648,0,0,1-5.649,12.731c-.085.117-.152.218-.205.305a4.673,4.673,0,0,0,.522.025c4.341,0,15.5-3.947,21.707-7.68a1.411,1.411,0,0,1,.909-.189,47.222,47.222,0,0,0,6.192.416c20.425,0,37.041-13.244,37.041-29.523S556.913,75.055,536.489,75.055Z" transform="translate(-499.452 -75.055)"/></g><g class="p" transform="translate(138.502 29.359)"><g transform="translate(-334.233 -178.693)"><path class="q" d="M334.851,363.561l-.618,6.639,3.992,7.35c2.335,13.405,8.009,30.941,17.308,41.156,3.18.086,10.067-1.953,13.785-6.781l12.635-26.82-10.37-26.494c-3.839,9.868-8.136,27.455-11.824,36.074-2.762-5.078-8.846-13.4-12.976-20.308l1.955-4.99-.129-4.712-1.2-.34-2.27,3.331-3.919-3.7-1.122-8.11-2.324.306Z" transform="translate(0 -80.609)"/><path class="r" d="M471.713,565.692l-48.333,4.745-20.74-3.163-1.406-21.443s15.027-.139,31.9-.44c19.686-.351,40.076-.79,40.076-.79Z" transform="translate(-30.485 -166.49)"/><path class="r" d="M398.063,565.4S391.3,618.307,392,708.3a21.1,21.1,0,0,1,8.7,1.582s21.971-101.505,27.947-139.471C420.913,568.3,398.063,565.4,398.063,565.4Z" transform="translate(-26.261 -175.954)"/><path class="r" d="M468.637,567.08S479.885,649.164,482,709.8c3.512,1.406,7.909,0,7.909,0s14.589-94.388,12.128-141.317C494.3,566.378,468.637,567.08,468.637,567.08Z" transform="translate(-61.155 -176.667)"/><path class="s" d="M401.042,328.732c6.835-4.565,20.693-8.782,22.883-9.7l21.534-.162A241.336,241.336,0,0,1,472,328.035c.972,1.8,1.906,2.895,2.182,3.691.307.889-5.291,36.679-4.779,44.754,1.332,21.023,2.577,39.8,2.583,60.93,0,2.23,1.2,6.272,1.253,8.875-8.355,2.59-20.325,3.709-32.306,3.926-13.363.241-29.788-.258-42.923-3.223a55.168,55.168,0,0,1,.879-8.437,641.53,641.53,0,0,1,7.97-78.725C405.729,348.631,404.08,337.6,401.042,328.732Z" transform="translate(-29.018 -63.781)"/><path class="t" d="M443.015,288.584,441.1,305.968c3.7,13.063,7.639,21.519,11.132,27.073a111.346,111.346,0,0,0,15.5-26.875l-.346-18.285Z" transform="translate(-48.625 -49.681)"/><path class="s" d="M392.672,336.953c-5.443,12.709-10.968,39.13-13.067,46.986,5.836,3.324,10.96,5.1,16.291,7.442l4.461-35.912Z" transform="translate(-20.645 -72.009)"/><g transform="translate(386.53 178.693)"><path class="u" d="M503.156,247.076a8.277,8.277,0,0,1-2.118,3.512c-.775.739-1.28,1.151-3.709,0-1.738-.823-1.468-2.306-1.025-4.745s2.325-4.14,4.219-3.8S503.593,244.637,503.156,247.076Z" transform="translate(-460.122 -207.498)"/><path class="v" d="M436.628,205.356c-2.167,1.572-4.251,5.019-5.2,9.338l2.549,11.19,2.739-12.525C436.573,211,436.772,207.719,436.628,205.356Z" transform="translate(-430.754 -190.825)"/><path class="w" d="M435.393,201.024l-2.864,17.661-.88,10.329-1.458,16.527s8.516,9.38,11.252,10.358c14.321,5.114,25.575-8.183,25.575-8.183l2.336-23.263-.037-15.737-9.717-9.845Z" transform="translate(-430.191 -187.874)"/><path class="x" d="M453.655,238.711s-1.6,6.174-2.692,7.411a4.6,4.6,0,0,1-3.834,1.592l1.283,3.812,7.514,1.018Z" transform="translate(-437.898 -206.001)"/><path class="y" d="M468.539,239.9l-.227,3.241,7.014.438.085-2.9Z" transform="translate(-447.536 -206.544)"/><path class="y" d="M440.425,238.511c-.489.244-.107,2.628-.107,2.628l6.369.567-.01-3.179A15.734,15.734,0,0,0,440.425,238.511Z" transform="translate(-434.734 -205.76)"/><path class="y" d="M447.318,268.805a26.275,26.275,0,0,0,18.285-1.662c-1.151,6.01-9.09,11.711-13.873,8.375C448.4,273.2,447.318,268.805,447.318,268.805Z" transform="translate(-437.984 -218.938)"/><path class="z" d="M447.479,239.891a2.046,2.046,0,1,1-2.046-2.046A2.045,2.045,0,0,1,447.479,239.891Z" transform="translate(-436.195 -205.607)"/><path class="z" d="M476.1,241.581a2.069,2.069,0,1,1-2.068-2.069A2.069,2.069,0,0,1,476.1,241.581Z" transform="translate(-449.195 -206.366)"/><path class="aa" d="M439.386,237.96l7.058.244c-.2-.931-1.3-1.262-2.235-1.326A10.5,10.5,0,0,0,439.386,237.96Z" transform="translate(-434.375 -205.161)"/><path class="ab" d="M467.977,239.155l7.367.825C473.992,237.432,469.524,237.977,467.977,239.155Z" transform="translate(-447.384 -205.755)"/><path class="ac" d="M434.209,234.617l.042.518,12.531-1.022-.043-.518-.519.045s.005.058.014.171c.024.338.073,1.142.073,2.093a18.328,18.328,0,0,1-.18,2.754,6.621,6.621,0,0,1-.277,1.158,2.045,2.045,0,0,1-.386.71,2.733,2.733,0,0,1-.841.558,12.5,12.5,0,0,1-4.812.855,11.689,11.689,0,0,1-2.359-.218,3.659,3.659,0,0,1-1.506-.6,2.357,2.357,0,0,1-.606-1.02,11.52,11.52,0,0,1-.513-2.657c-.087-.93-.1-1.8-.1-2.316,0-.155,0-.279,0-.364s0-.127,0-.127l-.52-.016.042.518-.042-.518-.52-.017s-.006.2-.006.524a24.356,24.356,0,0,0,.227,3.407,10.245,10.245,0,0,0,.45,1.918,3.316,3.316,0,0,0,.927,1.475,4.614,4.614,0,0,0,1.949.816,12.726,12.726,0,0,0,2.575.24,15.888,15.888,0,0,0,3.7-.424,8.587,8.587,0,0,0,1.555-.528,3.733,3.733,0,0,0,1.162-.79,3.043,3.043,0,0,0,.607-1.074,9.116,9.116,0,0,0,.418-2.074c.075-.74.1-1.5.1-2.186,0-1.316-.09-2.345-.09-2.355l-.045-.516-13.509,1.1-.015.464Z" transform="translate(-431.78 -203.418)"/><path class="ac" d="M464.074,233.572l-.074.515L477.3,236l.073-.515-.521-.015s0,.086-.01.244a30.148,30.148,0,0,1-.325,3.286,10.867,10.867,0,0,1-.433,1.81,3.222,3.222,0,0,1-.281.611.819.819,0,0,1-.236.269,5.693,5.693,0,0,1-1.836.641,13.19,13.19,0,0,1-2.477.217,16.009,16.009,0,0,1-4.54-.635,6.834,6.834,0,0,1-1.639-.718,1.924,1.924,0,0,1-.776-.795,2.56,2.56,0,0,1-.142-.65,9.158,9.158,0,0,1-.049-1.014,30.3,30.3,0,0,1,.239-3.342c.06-.505.12-.942.165-1.252.023-.155.041-.279.055-.364s.02-.128.02-.128l-.513-.083-.074.515.074-.515-.513-.084a40.082,40.082,0,0,0-.493,5.253,9.932,9.932,0,0,0,.056,1.133,3.5,3.5,0,0,0,.214.931,2.917,2.917,0,0,0,1.176,1.271,9.444,9.444,0,0,0,3.021,1.129,17.908,17.908,0,0,0,3.719.388,14.168,14.168,0,0,0,2.675-.236,6.707,6.707,0,0,0,2.179-.774,1.9,1.9,0,0,0,.64-.712,6.711,6.711,0,0,0,.625-1.806,28.219,28.219,0,0,0,.52-4.561l.011-.463-14.261-2.057-.082.5Z" transform="translate(-445.15 -203.396)"/><path class="ac" d="M460.513,239.392a2.489,2.489,0,0,0-2.832-.42l-.5-.93a3.512,3.512,0,0,1,4.074.6Z" transform="translate(-442.473 -205.518)"/><path class="ad" d="M466.109,224.912l-.256,2.3,12.532,2.046.765-1.023Z" transform="translate(-446.417 -199.723)"/><path class="ae" d="M445.868,224.075l.4,2.928-7.09.993-.047-1.547Z" transform="translate(-434.259 -199.342)"/><path class="af" d="M500.893,250.6s2.591-1.339,2.643-3.581c.088-3.452-3.195-1.15-3.195-1.15Z" transform="translate(-462.11 -208.917)"/><path class="ag" d="M471.381,194.05c-1.218-4.413-4.194-7.594-5.042-8.708C462.365,180.1,451,178.693,451,178.693a21.635,21.635,0,0,0-12.01,12.877c-.4,1.187-1.288,5.025-1.288,5.025l12.275,3.451,17.514-5.114,2.3,4.731,2.3,7.16v11.891l.64-.767,2.862-17.606Z" transform="translate(-433.607 -178.693)"/><path class="ah" d="M459.856,199.967c-4.431-12.269,1.85-20.626,1.913-20.709l.418.322c-.062.081-6.164,8.221-1.836,20.207Z" transform="translate(-442.969 -178.95)"/><path class="ah" d="M448.766,197.6c-2.33-3.884-1.106-9.179-1.053-9.4l.513.122c-.013.053-1.226,5.314.993,9.01Z" transform="translate(-437.996 -183.019)"/><path class="ah" d="M467.617,200.471l-.528-.02c.341-8.694,7.671-16.461,7.745-16.538l.381.364C475.142,184.352,467.949,191.98,467.617,200.471Z" transform="translate(-446.98 -181.068)"/><path class="ai" d="M454.536,270.327a24.29,24.29,0,0,1-8.057-1.716l.4-.974a22.844,22.844,0,0,0,8.213,1.623c2.8-.133,8.276-1.455,9.481-2.771l.778.713c-1.561,1.7-7.5,2.982-10.209,3.111C454.943,270.323,454.74,270.327,454.536,270.327Z" transform="translate(-437.602 -218.641)"/><path class="ai" d="M480.031,267.965a.528.528,0,0,1-.526-.5,11.215,11.215,0,0,0-.171-1.41,5.145,5.145,0,0,1-1.23-.7.527.527,0,0,1,.658-.825,3.827,3.827,0,0,0,1.153.607l.282.077.085.28a10.65,10.65,0,0,1,.277,1.912.528.528,0,0,1-.5.556Z" transform="translate(-451.902 -217.698)"/><path class="ai" d="M445.7,269.01a.527.527,0,0,1-.378-.894,9.279,9.279,0,0,1,1.294-1.026.527.527,0,1,1,.6.869,8.717,8.717,0,0,0-1.137.893A.525.525,0,0,1,445.7,269.01Z" transform="translate(-437.01 -218.872)"/><path class="ac" d="M496.681,241.251l-7.929-.767.1-1.05,7.924.767Z" transform="translate(-456.836 -206.331)"/></g><path class="aj" d="M537.051,430.238c-1.856-6.272-4.063-12.528-6.048-19.275l18.428-5.308a112.435,112.435,0,0,1,6.177,24.918Z" transform="translate(-89.531 -103.269)"/><path class="ak" d="M536.177,488.975l-2.857-1.459,2.044-2.95,2.478-1.7c-.282-11.116-.01-21.6.174-32.682l18.511.3.161.314c-.248,15.761-4.217,21.351-9.971,36.023l-.255,3.417-1.621,7.651-3.143,1.662-1.646-.75-.616-1.729-1.633,1.639-1.646-.751Z" transform="translate(-90.586 -123.529)"/><path class="al" d="M418.564,523.894l-.691-.02.47-16.438c-6.47-.521-11.1-1-13.77-1.414l.107-.683c2.658.416,7.515.912,14.046,1.434l.327.027Z" transform="translate(-32.005 -148.626)"/><path class="al" d="M491.194,525.463l-.489-17.107.834-.036c4.485-.195,10.629-.461,15.039-1.113l.1.684c-4.446.658-10.61.924-15.111,1.119l-.153.007.469,16.426Z" transform="translate(-71.196 -149.476)"/><path class="am" d="M494.87,403.236l-17.142,1.636.284,4.552,17.142-.782Z" transform="translate(-65.291 -102.168)"/><path class="s" d="M549.843,385.47c-3.495-12.114-10.569-35.057-22.01-49.763l-.477.267-6.634,31.055s5.105,13.581,7.638,23.92A54.793,54.793,0,0,0,549.843,385.47Z" transform="translate(-84.853 -71.442)"/><path class="al" d="M448.485,357.513c-1.975,0-4.329-.1-5.334-.194l-.173-.015-.091-.149a112.526,112.526,0,0,1-12.395-29.782l.67-.173a111.939,111.939,0,0,0,12.224,29.445,65.148,65.148,0,0,0,7.137.12c-1.159-1.739-1.553-2.393-3.048-4.933l.6-.35c1.613,2.742,1.937,3.275,3.342,5.372l.3.447-.53.087A20.074,20.074,0,0,1,448.485,357.513Zm3.891-1.379-.525-.451c7.841-9.122,13.333-20.256,16.56-27.991l.638.266C465.8,335.739,460.276,346.944,452.376,356.134Z" transform="translate(-43.798 -67.571)"/><path class="al" d="M408.561,415.7l-.688-.072.039-.371c.624-5.877,1-9.425,3.311-23.718l.682.11c-2.308,14.275-2.683,17.815-3.306,23.681Z" transform="translate(-33.507 -96.844)"/><path class="al" d="M523.87,398.242c-.344-1.187-.67-2.241-.982-3.25a81.18,81.18,0,0,1-3.526-16.791l.686-.087a80.582,80.582,0,0,0,3.5,16.674c.313,1.013.64,2.07.985,3.261Z" transform="translate(-84.235 -90.738)"/><path class="al" d="M534.691,421.725l-.075-.687a58.078,58.078,0,0,0,17.6-4.745l.284.63A58.736,58.736,0,0,1,534.691,421.725Z" transform="translate(-91.175 -108.11)"/><path class="al" d="M397.6,418.23a77.241,77.241,0,0,1-9.452-3.941c-1.181-.554-2.479-1.164-3.976-1.846l.287-.629c1.5.684,2.8,1.294,3.983,1.85a76.7,76.7,0,0,0,9.374,3.91Z" transform="translate(-22.72 -106.071)"/><path class="an" d="M372,831.039s-.065-2.871,1.356-4.246c1.278-.768,5.118-.556,5.118-.556l5.518-2.187,7.277,2.1-.005,4.863Z" transform="translate(-17.182 -293.641)"/><path class="an" d="M504.417,832.382a9.752,9.752,0,0,0-1.962-4.188,11.693,11.693,0,0,0-1.86-.729,8.672,8.672,0,0,1-2.342-1.026l-5.429.651-2.611,4.032.019,1.279Z" transform="translate(-70.972 -294.728)"/><path class="ao" d="M490.2,837.223l14.247-.018-.355-1.887-13.894.018Z" transform="translate(-70.964 -298.768)"/><path class="ao" d="M371.807,836.445l19.367-.043.1-1.888L372,834.558Z" transform="translate(-17.096 -298.402)"/></g></g></g></svg>