<svg xmlns="http://www.w3.org/2000/svg" xmlns:xlink="http://www.w3.org/1999/xlink" width="416" height="255" viewBox="0 0 416 255"><defs><style>.a{fill:none;}.b{clip-path:url(#a);}.c{fill:#bceaf7;}.d{fill:#3d3d70;}.e{fill:#38c8d0;}.f{fill:#fd3535;}.g{fill:#b3b3b3;}.h{fill:#fff;}</style><clipPath id="a"><rect class="a" width="416" height="255"/></clipPath></defs><g class="b"><rect class="c" width="416" height="255"/><g transform="translate(11.297 34.834)"><g transform="translate(97.507 93.966)"><path class="d" d="M417.088,296.488h-3.637v-2.058h3.637v-3.665h2.058v3.665h3.636v2.058h-3.636v3.618h-2.058Z" transform="translate(-413.451 -290.766)"/></g><g transform="translate(267.914 93.966)"><path class="d" d="M788.993,296.488h-3.636v-2.058h3.636v-3.665h2.058v3.665h3.636v2.058h-3.636v3.618h-2.058Z" transform="translate(-785.357 -290.766)"/></g><g transform="translate(384.594 96.688)"><path class="e" d="M1043.645,302.428h-3.637v-2.058h3.637v-3.665h2.058v3.665h3.636v2.058H1045.7v3.618h-2.058Z" transform="translate(-1040.008 -296.706)"/></g><g transform="translate(287.478 90.991)"><path class="d" d="M830.56,297.185a.608.608,0,0,1-.442-.19,7.546,7.546,0,0,1,9.395-11.634.609.609,0,0,1,.158.9l-8.636,10.693a.609.609,0,0,1-.45.226Zm5.041-11.693a6.31,6.31,0,0,0-5.053,10.128l7.711-9.547A6.335,6.335,0,0,0,835.6,285.492Z" transform="translate(-828.054 -284.273)"/><path class="d" d="M840.5,302.375h0a7.521,7.521,0,0,1-3.912-1.089.609.609,0,0,1-.158-.9l8.636-10.693a.61.61,0,0,1,.916-.036,7.531,7.531,0,0,1-5.483,12.722Zm-2.658-1.8a6.322,6.322,0,0,0,7.711-9.547Z" transform="translate(-832.521 -287.085)"/></g><g transform="translate(84.289 67.447)"><path class="e" d="M393.95,232.889h-4.775a4.572,4.572,0,0,0-4.572,4.572h0a4.573,4.573,0,0,0,4.572,4.572h4.775Z" transform="translate(-384.602 -232.889)"/><path class="f" d="M409.982,242.033a4.572,4.572,0,0,0,4.572-4.572h0a4.572,4.572,0,0,0-4.572-4.572H405v9.144Z" transform="translate(-395.655 -232.889)"/></g><g transform="translate(0 38.556)"><g transform="translate(34.71 34.132)"><g transform="translate(0.672)"><path class="d" d="M344.323,277.541a2.282,2.282,0,0,1-1.947-3.469l2.254-3.7a2.282,2.282,0,0,1,3.9,2.373l-2.254,3.7A2.28,2.28,0,0,1,344.323,277.541Z" transform="translate(-312.637 -257.843)"/><path class="d" d="M318.3,289.026a3.192,3.192,0,0,1-2.761-4.783c.14-.242,3.5-5.938,9.672-6.961,4.069-.674,8.193.782,12.26,4.329a3.195,3.195,0,0,1-4.2,4.815c-2.546-2.22-4.894-3.178-6.978-2.847-3.184.506-5.213,3.849-5.233,3.883A3.211,3.211,0,0,1,318.3,289.026Z" transform="translate(-298.042 -262.095)"/><path class="d" d="M304.263,269.506a3.184,3.184,0,0,1-2.292-.97c-6.57-6.769-1.294-20.545-.671-22.093a3.195,3.195,0,0,1,5.928,2.384c-1.474,3.688-3.577,12.267-.672,15.26a3.195,3.195,0,0,1-2.292,5.42Z" transform="translate(-289.157 -244.388)"/><path class="f" d="M311.332,283.507c-3.533,0-8.595,1.754-10.849,4.681-2.254-2.927-7.334-4.681-10.867-4.681-8.27,0-14.892,10.3-10.183,22.379,2.911,7.465,9.9,16.215,15.56,21.129a8.15,8.15,0,0,0,10.681.006c5.673-4.913,12.952-13.661,15.851-21.134C326.458,293.167,319.6,283.507,311.332,283.507Z" transform="translate(-277.864 -265.555)"/><path class="f" d="M312.008,276.172a3.652,3.652,0,0,1-3.617-3.193c-.118-.929-1-9.187,3.959-13.164,1.925-1.543,5.4-2.956,11.043-.926a3.651,3.651,0,0,1-2.473,6.87c-1.89-.68-3.35-.77-4-.246-1.337,1.071-1.495,4.856-1.281,6.549a3.654,3.654,0,0,1-3.627,4.11Z" transform="translate(-294.33 -251.67)"/><path class="f" d="M335.542,254.043a2.282,2.282,0,0,1-2.282-2.282v-5.152a2.282,2.282,0,1,1,4.564,0v5.152A2.282,2.282,0,0,1,335.542,254.043Z" transform="translate(-307.878 -244.327)"/><path class="f" d="M324.3,254.043a2.282,2.282,0,0,1-2.282-2.282v-5.152a2.282,2.282,0,1,1,4.564,0v5.152A2.282,2.282,0,0,1,324.3,254.043Z" transform="translate(-301.786 -244.327)"/><path class="d" d="M309.4,255.236a2.282,2.282,0,0,1-.888-4.384l3.994-1.686a2.282,2.282,0,0,1,1.775,4.2l-3.994,1.686A2.276,2.276,0,0,1,309.4,255.236Z" transform="translate(-293.713 -246.851)"/><path class="d" d="M328.3,317.37h-.031a.684.684,0,0,1-.653-.715c.655-14.41,18.311-23.085,19.062-23.447a.685.685,0,0,1,.6,1.233c-.177.086-17.672,8.686-18.289,22.277A.685.685,0,0,1,328.3,317.37Z" transform="translate(-304.817 -270.773)"/><path class="d" d="M282.969,324.925a.686.686,0,0,1-.68-.769c.062-.5,1.618-12.228,9.9-11.707a.685.685,0,0,1-.085,1.367c-6.993-.444-8.441,10.4-8.455,10.511A.685.685,0,0,1,282.969,324.925Z" transform="translate(-280.259 -281.226)"/><path class="d" d="M345.584,333.931a.693.693,0,0,1-.219-.036.685.685,0,0,1-.429-.868c3.332-9.843-4.411-15.568-4.742-15.807a.685.685,0,0,1,.8-1.112c.089.064,8.9,6.539,5.24,17.359A.685.685,0,0,1,345.584,333.931Z" transform="translate(-311.48 -283.148)"/><path class="d" d="M294.263,321.9c-3.86,0-4.691-1.411-4.823-1.707l1.251-.556a.173.173,0,0,0-.019-.037c.006.01.683,1.055,4.2.919a.693.693,0,0,1,.71.658.685.685,0,0,1-.658.71Q294.578,321.9,294.263,321.9Z" transform="translate(-284.136 -285.108)"/><path class="d" d="M304.178,347.327a.684.684,0,0,1-.652-.476c-.116-.363-2.76-9,5.112-18.673a.685.685,0,1,1,1.062.864c-7.408,9.106-4.9,17.309-4.87,17.39a.685.685,0,0,1-.652.894Z" transform="translate(-291.487 -289.621)"/><path class="d" d="M304.741,354.733c-.247,0-.393-.011-.4-.012a.685.685,0,0,1,.122-1.364c.2.018,4.853.366,6.717-3.937a.685.685,0,0,1,1.256.544C310.521,354.382,306.1,354.733,304.741,354.733Z" transform="translate(-291.871 -301.043)"/><path class="d" d="M350.956,299.414a.682.682,0,0,1-.431-.153,5.486,5.486,0,0,0-5.11-.7.684.684,0,0,1-.509-1.271,6.817,6.817,0,0,1,6.482.909.685.685,0,0,1-.432,1.216Z" transform="translate(-313.954 -272.781)"/><path class="d" d="M294.063,293.57a.684.684,0,0,1-.551-.278c-2.425-3.281-8.533-1.54-8.595-1.521a.685.685,0,1,1-.384-1.314c.288-.084,7.094-2.019,10.08,2.021a.685.685,0,0,1-.55,1.092Z" transform="translate(-281.21 -269.03)"/></g><path class="d" d="M299.542,328.886h0a8.838,8.838,0,0,1-5.793-2.164c-5.562-4.828-12.758-13.728-15.749-21.4-2.505-6.425-2.053-13.112,1.21-17.887a11.69,11.69,0,0,1,9.612-5.426c3.474,0,8.291,1.6,10.867,4.315,2.575-2.714,7.384-4.315,10.849-4.315a11.88,11.88,0,0,1,9.826,5.419c3.223,4.707,3.589,11.228,1,17.892-3.015,7.772-10.429,16.544-16.041,21.4A8.838,8.838,0,0,1,299.542,328.886Zm-10.72-45.5a10.343,10.343,0,0,0-8.481,4.829c-3.008,4.4-3.406,10.613-1.064,16.616,2.91,7.462,9.936,16.143,15.371,20.86a7.466,7.466,0,0,0,9.784.005c5.663-4.9,12.861-13.646,15.661-20.865,2.419-6.236,2.106-12.295-.858-16.623a10.532,10.532,0,0,0-8.7-4.823c-3.322,0-8.206,1.688-10.306,4.413a.708.708,0,0,1-1.085,0C297.047,285.07,292.152,283.382,288.822,283.382Z" transform="translate(-276.397 -264.745)"/></g><g transform="translate(0)"><path class="d" d="M274.6,204.62a.977.977,0,0,1-.958-1.157l4.488-23.5a6.555,6.555,0,0,0-6.544-6.923.974.974,0,1,1,0-1.948,8.5,8.5,0,0,1,8.484,9.056.96.96,0,0,1-.015.12l-4.5,23.561A.974.974,0,0,1,274.6,204.62Z" transform="translate(-238.554 -170.516)"/><path class="d" d="M206.027,204.059a.975.975,0,0,1-.956-.792l-4.393-23a1.051,1.051,0,0,1-.015-.12,8.5,8.5,0,0,1,8.485-9.056.974.974,0,1,1,0,1.948,6.555,6.555,0,0,0-6.544,6.923l4.381,22.939a.977.977,0,0,1-.958,1.157Z" transform="translate(-200.644 -170.516)"/><path class="g" d="M225.954,256.326a16.9,16.9,0,0,1-16.813-15.656l-.087-.453a1.624,1.624,0,0,1,3.19-.61l.1.55a1.6,1.6,0,0,1,.025.2,13.608,13.608,0,0,0,27.159,0,1.554,1.554,0,0,1,.026-.2l.042-.22a1.623,1.623,0,0,1,3.189.61l-.024.126A16.894,16.894,0,0,1,225.954,256.326Z" transform="translate(-205.185 -206.924)"/><path class="e" d="M220.081,173.157h-1.788a1.66,1.66,0,0,1-1.661-1.661h0a1.66,1.66,0,0,1,1.661-1.661h1.788a1.66,1.66,0,0,1,1.66,1.661h0A1.66,1.66,0,0,1,220.081,173.157Z" transform="translate(-209.307 -169.836)"/><path class="e" d="M267.752,173.157h-1.788A1.661,1.661,0,0,1,264.3,171.5h0a1.66,1.66,0,0,1,1.661-1.661h1.788a1.66,1.66,0,0,1,1.661,1.661h0A1.66,1.66,0,0,1,267.752,173.157Z" transform="translate(-235.135 -169.836)"/><g transform="translate(19.273 46.341)"><path class="g" d="M262.341,327.828a19.657,19.657,0,0,1-19.635-19.634V272.6a1.624,1.624,0,0,1,3.247,0v35.6a16.387,16.387,0,0,0,32.774,0V295.165a1.624,1.624,0,0,1,3.247,0v13.029A19.657,19.657,0,0,1,262.341,327.828Z" transform="translate(-242.706 -270.974)"/><g transform="translate(29.246 12.373)"><circle class="e" cx="8.175" cy="8.175" r="8.175"/><path class="d" d="M318.39,314.9a5.062,5.062,0,1,1,5.062-5.062A5.067,5.067,0,0,1,318.39,314.9Zm0-8.175a3.113,3.113,0,1,0,3.113,3.113A3.117,3.117,0,0,0,318.39,306.72Z" transform="translate(-310.215 -301.659)"/></g></g></g></g><g transform="translate(103.965)"><g transform="translate(18.059 45.079)"><rect class="e" width="128.672" height="103.841"/><g transform="translate(12.006 11.63)"><rect class="h" width="24.267" height="23.138" transform="translate(0.974 0.974)"/><path class="d" d="M518.4,234.539H494.134a.974.974,0,0,1-.974-.974V210.427a.974.974,0,0,1,.974-.974H518.4a.974.974,0,0,1,.974.974v23.138A.974.974,0,0,1,518.4,234.539Zm-23.293-1.948h22.319V211.4H495.108Z" transform="translate(-493.16 -209.453)"/></g><g transform="translate(51.793 11.63)"><rect class="h" width="24.267" height="23.138" transform="translate(0.974 0.974)"/><path class="d" d="M605.235,234.539H580.968a.974.974,0,0,1-.974-.974V210.427a.974.974,0,0,1,.974-.974h24.267a.974.974,0,0,1,.974.974v23.138A.974.974,0,0,1,605.235,234.539Zm-23.293-1.948h22.319V211.4H581.942Z" transform="translate(-579.994 -209.453)"/></g><g transform="translate(91.58 11.63)"><rect class="h" width="24.267" height="23.138" transform="translate(0.974 0.974)"/><path class="d" d="M692.068,234.539H667.8a.974.974,0,0,1-.974-.974V210.427a.974.974,0,0,1,.974-.974h24.267a.974.974,0,0,1,.974.974v23.138A.974.974,0,0,1,692.068,234.539Zm-23.293-1.948h22.319V211.4H668.775Z" transform="translate(-666.827 -209.453)"/></g><g transform="translate(12.006 44.437)"><rect class="h" width="24.267" height="23.138" transform="translate(0.974 0.974)"/><path class="d" d="M518.4,306.141H494.134a.974.974,0,0,1-.974-.974V282.028a.974.974,0,0,1,.974-.974H518.4a.974.974,0,0,1,.974.974v23.138A.974.974,0,0,1,518.4,306.141Zm-23.293-1.948h22.319V283H495.108Z" transform="translate(-493.16 -281.054)"/></g><rect class="d" width="24.267" height="46.277" transform="translate(52.767 57.47)"/><g transform="translate(91.58 44.437)"><rect class="h" width="24.267" height="23.138" transform="translate(0.974 0.974)"/><path class="d" d="M692.068,306.141H667.8a.974.974,0,0,1-.974-.974V282.028a.974.974,0,0,1,.974-.974h24.267a.974.974,0,0,1,.974.974v23.138A.974.974,0,0,1,692.068,306.141Zm-23.293-1.948h22.319V283H668.775Z" transform="translate(-666.827 -281.054)"/></g></g><rect class="d" width="164.791" height="21.069" transform="translate(0 24.95)"/><g transform="translate(60.415)"><circle class="h" cx="17.374" cy="17.374" r="17.374" transform="matrix(0.234, -0.972, 0.972, 0.234, 1.029, 34.816)"/><path class="f" d="M581.378,85.688a21.98,21.98,0,1,0,21.98,21.98A21.98,21.98,0,0,0,581.378,85.688Zm14.035,28.093h-10.08v9.164h-9.622v-9.164h-9.622V103.242h9.622V93.162h9.622v10.08h10.08Z" transform="translate(-559.398 -85.688)"/></g></g><g transform="translate(252.542 40.583)"><circle class="g" cx="8.21" cy="8.21" r="8.21" transform="translate(58.814 17.152) rotate(-79.712)"/><g transform="translate(64.721 13.503)"><path class="g" d="M900.335,207.477,898.08,281.84a1.382,1.382,0,0,1-2.763,0l-2.255-74.363a3.638,3.638,0,1,1,7.273-.22C900.337,207.326,900.336,207.408,900.335,207.477Z" transform="translate(-893.06 -203.728)"/></g><g transform="translate(0 0)"><path class="e" d="M937.389,174.28c-7.395-.44-13.029,6.015-13.413,13.413-.293,5.653-7.092,5.949-7.092,5.949v10.543s38.3-2.109,60.444-12.042c.924-.414.824-1.958-.187-2.01C943.1,188.39,952.461,175.177,937.389,174.28Z" transform="translate(-841.247 -174.259)"/><path class="e" d="M792.385,174.28c7.394-.44,13.029,6.015,13.413,13.413.293,5.653,7.092,5.949,7.092,5.949v10.543s-38.3-2.109-60.444-12.042c-.924-.414-.824-1.958.187-2.01C786.678,188.39,777.313,175.177,792.385,174.28Z" transform="translate(-751.81 -174.259)"/></g><g transform="translate(55.729 32.088)"><path class="f" d="M892.124,244.691a15.344,15.344,0,0,1,1.559-.258,17.3,17.3,0,0,1,4.355-.008,10.407,10.407,0,0,1,3.438,1.048,7.643,7.643,0,0,1,1.913,1.408,7.13,7.13,0,0,1,1.471,2.2,8.163,8.163,0,0,1,.613,2.489c.023.208.027.405.038.609l0,.3v.15l-.005.187,0,.055-.013.219c-.005.075-.005.125-.025.294a7.267,7.267,0,0,1-.129.824,6.979,6.979,0,0,1-1.329,2.832,8,8,0,0,1-2.253,1.926,15.244,15.244,0,0,1-4.724,1.664,44.694,44.694,0,0,1-4.634.63c-3.079.29-6.249.4-9.242.885a18.142,18.142,0,0,0-2.133.47,7.659,7.659,0,0,0-1.747.711,2.457,2.457,0,0,0-.919.843,1.774,1.774,0,0,0-.181.507,3.886,3.886,0,0,0-.049.866,5.707,5.707,0,0,0,.229,1.732,1.52,1.52,0,0,0,.247.45,2.537,2.537,0,0,0,.525.451,16.258,16.258,0,0,0,2.028,1.054l1.2.561,1.194.572c1.464.693,3.093,1.32,4.745,2.02.83.356,1.673.726,2.526,1.18a13.309,13.309,0,0,1,2.543,1.7,8.307,8.307,0,0,1,1.163,1.26,6.381,6.381,0,0,1,.861,1.615,6.092,6.092,0,0,1,.358,1.779,6.881,6.881,0,0,1,0,.864l-.005.106-.01.109-.016.159-.049.4a7.622,7.622,0,0,1-.408,1.618,6.185,6.185,0,0,1-.847,1.542,8.525,8.525,0,0,1-2.337,2.06c-3.141,1.928-6.331,2.648-8.546,4.1a8.292,8.292,0,0,0-1.464,1.144,2.979,2.979,0,0,0-.768,1.172,1.456,1.456,0,0,0,.076,1.031,3.037,3.037,0,0,0,.841,1.046,3.7,3.7,0,0,0,.586.4c.254.136.5.252.777.378.543.246,1.106.48,1.658.712,1.108.466,2.187.921,3.2,1.451a12.95,12.95,0,0,1,1.474.882,5.745,5.745,0,0,1,1.343,1.255,3.728,3.728,0,0,1,.282.444l.046.092.017.038.035.077c.018.034.061.143.092.225a4.321,4.321,0,0,1,.229.876,6.617,6.617,0,0,1,.061,1.47,10.528,10.528,0,0,1-.41,2.266,10.172,10.172,0,0,1-.605,1.593,5,5,0,0,1-.644,1.032,2.459,2.459,0,0,1-.317.316l-.157.117a.966.966,0,0,1-1.485-1.1l.268-.728c0-.011-.073.06-.011-.011a3.077,3.077,0,0,0,.315-.575,8.556,8.556,0,0,0,.677-3.015,4.222,4.222,0,0,0-.07-.943,1.935,1.935,0,0,0-.109-.378.463.463,0,0,0-.036-.083l-.038-.075-.019-.038-.01-.019c-.009-.018.039.079.016.035a1.338,1.338,0,0,0-.094-.129,3.466,3.466,0,0,0-.794-.662,10.534,10.534,0,0,0-1.211-.663c-.9-.429-1.929-.826-3.046-1.248-.56-.213-1.141-.429-1.754-.681-.3-.124-.636-.267-.955-.423a6.506,6.506,0,0,1-1.055-.654,5.872,5.872,0,0,1-1.716-2.017,4.431,4.431,0,0,1-.345-3.036,5.9,5.9,0,0,1,1.413-2.508,11.273,11.273,0,0,1,1.968-1.679,26.73,26.73,0,0,1,4.344-2.291,28.645,28.645,0,0,0,4.014-2.126,5.021,5.021,0,0,0,1.337-1.244,3.111,3.111,0,0,0,.493-1.508l.019-.23.009-.159,0-.04s0-.056,0-.009v-.053a2.988,2.988,0,0,0-.017-.409,2.307,2.307,0,0,0-.174-.713,3.183,3.183,0,0,0-.99-1.234,15.792,15.792,0,0,0-4.072-2.042c-1.586-.6-3.258-1.169-4.994-1.909l-1.2-.521-1.2-.507a19.978,19.978,0,0,1-2.661-1.289,7.124,7.124,0,0,1-1.487-1.208A6.092,6.092,0,0,1,874.107,269a8.094,8.094,0,0,1-.494-1.761,12.864,12.864,0,0,1-.162-1.6,8.611,8.611,0,0,1,.061-1.71,6.545,6.545,0,0,1,.6-1.931,6.787,6.787,0,0,1,1.163-1.635,7.919,7.919,0,0,1,1.414-1.152,12.342,12.342,0,0,1,2.851-1.32,23.047,23.047,0,0,1,2.693-.7c3.481-.684,6.676-.889,9.581-1.275a39.476,39.476,0,0,0,4.04-.691,9.862,9.862,0,0,0,2.956-1.112,2.237,2.237,0,0,0,.65-.583,1.174,1.174,0,0,0,.186-.491c.015-.055-.006-.038.008-.058a.6.6,0,0,0,.008-.146l.006-.219v-.082c0-.038-.005.224,0,.106l0-.068-.007-.134c-.012-.082-.014-.171-.029-.246a2.163,2.163,0,0,0-.2-.7,1.3,1.3,0,0,0-.7-.6,4.587,4.587,0,0,0-1.426-.328,11.338,11.338,0,0,0-2.745.141,8.781,8.781,0,0,0-.92.19,3.192,3.192,0,1,1-1.511-6.2Z" transform="translate(-873.436 -244.29)"/></g><g transform="translate(49.333 32.088)"><path class="d" d="M871.357,250.893a8.82,8.82,0,0,0-.92-.19,11.338,11.338,0,0,0-2.745-.141,4.581,4.581,0,0,0-1.426.328,1.3,1.3,0,0,0-.7.6,2.175,2.175,0,0,0-.2.7c-.015.074-.017.163-.028.246l-.007.134,0,.068c0,.119,0-.144,0-.106v.082l.005.219c0,.071,0,.169.009.146.013.02-.008,0,.008.058a1.169,1.169,0,0,0,.186.491,2.242,2.242,0,0,0,.65.583,9.86,9.86,0,0,0,2.956,1.112,39.5,39.5,0,0,0,4.04.691c2.906.386,6.1.591,9.582,1.275a23.067,23.067,0,0,1,2.693.7,12.348,12.348,0,0,1,2.851,1.32,7.919,7.919,0,0,1,1.414,1.152A6.762,6.762,0,0,1,890.881,262a6.547,6.547,0,0,1,.6,1.931,8.68,8.68,0,0,1,.061,1.71,12.751,12.751,0,0,1-.162,1.6,8.091,8.091,0,0,1-.493,1.761,6.085,6.085,0,0,1-1.119,1.758,7.106,7.106,0,0,1-1.487,1.208,20,20,0,0,1-2.661,1.289l-1.2.507-1.2.521c-1.737.74-3.409,1.3-4.994,1.909a15.785,15.785,0,0,0-4.071,2.042,3.173,3.173,0,0,0-.99,1.234,2.292,2.292,0,0,0-.175.713,3.109,3.109,0,0,0-.017.409v.053c0-.047,0,.009,0,.009l0,.04.01.159.018.23a3.112,3.112,0,0,0,.493,1.508,5.013,5.013,0,0,0,1.337,1.244,28.666,28.666,0,0,0,4.014,2.126,26.689,26.689,0,0,1,4.344,2.291,11.278,11.278,0,0,1,1.969,1.679,5.894,5.894,0,0,1,1.412,2.508,4.433,4.433,0,0,1-.344,3.036,5.874,5.874,0,0,1-1.716,2.017,6.522,6.522,0,0,1-1.055.654c-.319.156-.655.3-.955.423-.612.252-1.194.468-1.753.681-1.117.422-2.149.818-3.045,1.248a10.456,10.456,0,0,0-1.211.663,3.463,3.463,0,0,0-.794.662,1.358,1.358,0,0,0-.094.129c-.023.044.026-.053.017-.035l-.01.019-.019.038-.038.075a.4.4,0,0,0-.036.083,1.922,1.922,0,0,0-.109.378,4.222,4.222,0,0,0-.07.943,8.541,8.541,0,0,0,.678,3.015,3.024,3.024,0,0,0,.315.575c.062.071-.015,0-.011.011l.266.722a.966.966,0,0,1-.572,1.24.976.976,0,0,1-.911-.132l-.158-.117a2.439,2.439,0,0,1-.316-.316,4.991,4.991,0,0,1-.644-1.032,10.16,10.16,0,0,1-.605-1.593,10.493,10.493,0,0,1-.409-2.266,6.554,6.554,0,0,1,.06-1.47,4.29,4.29,0,0,1,.228-.876c.031-.082.075-.191.092-.225l.035-.077.018-.038.046-.092a3.736,3.736,0,0,1,.282-.444,5.768,5.768,0,0,1,1.343-1.255,12.992,12.992,0,0,1,1.474-.882c1.014-.53,2.092-.985,3.2-1.451.553-.233,1.115-.466,1.658-.712.277-.126.523-.242.777-.378a3.716,3.716,0,0,0,.586-.4,3.032,3.032,0,0,0,.841-1.046,1.452,1.452,0,0,0,.076-1.031,2.983,2.983,0,0,0-.768-1.172,8.3,8.3,0,0,0-1.464-1.144c-2.215-1.45-5.405-2.17-8.546-4.1a8.513,8.513,0,0,1-2.336-2.06,6.169,6.169,0,0,1-.847-1.542,7.644,7.644,0,0,1-.408-1.618l-.049-.4-.016-.159-.01-.109-.005-.106a6.78,6.78,0,0,1,0-.864,6.079,6.079,0,0,1,.357-1.779,6.4,6.4,0,0,1,.861-1.615,8.334,8.334,0,0,1,1.163-1.26,13.3,13.3,0,0,1,2.543-1.7c.853-.454,1.7-.824,2.526-1.18,1.652-.7,3.281-1.327,4.745-2.02l1.194-.572,1.2-.561a16.241,16.241,0,0,0,2.028-1.054,2.539,2.539,0,0,0,.525-.451,1.511,1.511,0,0,0,.247-.45,5.7,5.7,0,0,0,.229-1.732,3.894,3.894,0,0,0-.048-.866,1.771,1.771,0,0,0-.181-.507,2.459,2.459,0,0,0-.918-.843,7.666,7.666,0,0,0-1.748-.711,18.144,18.144,0,0,0-2.133-.47c-2.993-.485-6.163-.594-9.242-.885a44.7,44.7,0,0,1-4.634-.63,15.243,15.243,0,0,1-4.723-1.664,8,8,0,0,1-2.253-1.926,6.979,6.979,0,0,1-1.329-2.832,7.382,7.382,0,0,1-.128-.824c-.02-.17-.02-.219-.025-.294l-.013-.219,0-.055-.005-.187v-.15l0-.3c.011-.2.015-.4.038-.609a8.186,8.186,0,0,1,.613-2.489,7.146,7.146,0,0,1,1.471-2.2,7.653,7.653,0,0,1,1.913-1.408,10.413,10.413,0,0,1,3.438-1.048,17.3,17.3,0,0,1,4.355.008,15.34,15.34,0,0,1,1.559.258,3.192,3.192,0,1,1-1.511,6.2Z" transform="translate(-859.478 -244.29)"/></g><path class="d" d="M997.9,212.258c-15.134,0-27.395-9.441-27.945-9.871a.974.974,0,0,1,1.2-1.535c.138.108,14.045,10.8,29.869,9.313a.974.974,0,1,1,.182,1.94C1000.088,212.209,998.985,212.258,997.9,212.258Z" transform="translate(-869.797 -188.555)"/><path class="d" d="M973.269,222.388a.976.976,0,0,1-.145-.011c-12.264-1.827-20.259-10.6-20.593-10.969a.974.974,0,0,1,1.449-1.3c.077.086,7.88,8.624,19.431,10.344a.974.974,0,0,1-.142,1.938Z" transform="translate(-860.426 -193.506)"/><path class="d" d="M949.409,230.868a.967.967,0,0,1-.383-.079c-11.006-4.7-13.868-10.225-13.984-10.457a.974.974,0,0,1,1.74-.876c.039.075,2.766,5.163,13.01,9.542a.974.974,0,0,1-.383,1.87Z" transform="translate(-851.03 -198.457)"/><path class="d" d="M767.705,212.257c-1.089,0-2.19-.049-3.306-.154a.974.974,0,1,1,.182-1.94c15.858,1.485,29.731-9.2,29.869-9.313a.974.974,0,1,1,1.2,1.535C795.1,202.816,782.837,212.257,767.705,212.257Z" transform="translate(-758.152 -188.554)"/><path class="d" d="M804.8,222.388a.974.974,0,0,1-.142-1.938c11.552-1.72,19.355-10.258,19.432-10.344a.974.974,0,0,1,1.449,1.3c-.334.373-8.329,9.142-20.594,10.969A.966.966,0,0,1,804.8,222.388Z" transform="translate(-779.995 -193.506)"/><path class="d" d="M836.37,230.871a.974.974,0,0,1-.384-1.87c10.268-4.389,12.984-9.491,13.01-9.542a.974.974,0,0,1,1.74.876c-.116.233-2.977,5.753-13.984,10.457A.967.967,0,0,1,836.37,230.871Z" transform="translate(-797.097 -198.46)"/></g><g transform="translate(219.345 116.216)"><g transform="translate(0 6.609)"><rect class="h" width="63.452" height="47.589" rx="15.579" transform="translate(0.974 0.974)"/><path class="d" d="M736.645,403.287H687.469a8.122,8.122,0,0,1-8.112-8.112V361.862a8.122,8.122,0,0,1,8.112-8.112h49.175a8.122,8.122,0,0,1,8.112,8.112v33.312A8.122,8.122,0,0,1,736.645,403.287ZM687.469,355.7a6.171,6.171,0,0,0-6.164,6.164v33.312a6.171,6.171,0,0,0,6.164,6.164h49.175a6.171,6.171,0,0,0,6.164-6.164V361.862a6.171,6.171,0,0,0-6.164-6.164Z" transform="translate(-679.357 -353.75)"/><path class="e" d="M801.066,357.3h-2.344a8.81,8.81,0,0,0-.2,1.5,7.581,7.581,0,0,0,7.613,7.932c.54,0,1.13-.183,1.13-.284V363.88C807.268,359.96,804.985,357.3,801.066,357.3Z" transform="translate(-743.923 -355.671)"/><path class="e" d="M689.625,357.3h2.344a8.838,8.838,0,0,1,.2,1.5,7.593,7.593,0,0,1-7.628,7.932c-.54,0-1.144-.183-1.144-.284V363.88C683.394,359.96,685.706,357.3,689.625,357.3Z" transform="translate(-681.544 -355.671)"/><path class="e" d="M689.8,446.765h2.344c.126,0,.2-.776.2-1.379a7.614,7.614,0,0,0-7.715-7.873,2.114,2.114,0,0,0-1.232.343v2.56C683.394,444.335,685.881,446.765,689.8,446.765Z" transform="translate(-681.544 -399.133)"/><path class="e" d="M801.449,446.765H799.1c-.126,0-.2-.776-.2-1.379,0-4.451,3.074-7.873,7.525-7.873.54,0,1.042.242,1.042.343v2.56C807.475,444.335,805.368,446.765,801.449,446.765Z" transform="translate(-744.13 -399.133)"/></g><path class="d" d="M748.077,347.354a.974.974,0,0,1-.974-.974v-2.908a2.2,2.2,0,0,0-2.2-2.2H734.858a2.2,2.2,0,0,0-2.2,2.2v2.908a.974.974,0,1,1-1.948,0v-2.908a4.151,4.151,0,0,1,4.147-4.147H744.9a4.151,4.151,0,0,1,4.147,4.147v2.908A.974.974,0,0,1,748.077,347.354Z" transform="translate(-707.181 -339.325)"/><path class="f" d="M733.362,377.417a13.219,13.219,0,1,0,13.219,13.219A13.219,13.219,0,0,0,733.362,377.417Zm8.251,16.3h-5.04v6.415h-6.415v-6.415h-5.04v-5.5h5.04v-5.5h6.415v5.5h5.04Z" transform="translate(-701.455 -359.963)"/></g><g transform="translate(64.769 117.9)"><g transform="translate(0 13.746)"><path class="h" d="M358.8,375h20.937v41.238h-8.49a9.9,9.9,0,0,0-19.768,0H344V396.188Z" transform="translate(-343.084 -374.084)"/><path class="d" d="M378.656,416.071h-8.49a.917.917,0,0,1-.915-.868,8.98,8.98,0,0,0-17.937,0,.916.916,0,0,1-.915.868h-7.481a.916.916,0,0,1-.916-.916V395.1a.918.918,0,0,1,.165-.525l14.8-21.188a.917.917,0,0,1,.751-.391h20.937a.917.917,0,0,1,.916.916v41.238A.917.917,0,0,1,378.656,416.071ZM371,414.238h6.741v-39.4H358.2l-14.364,20.56v18.845h5.733a10.809,10.809,0,0,1,21.433,0Z" transform="translate(-342 -373)"/></g><g transform="translate(35.739)"><path class="h" d="M483.857,345v54.984H470.918a9.9,9.9,0,0,0-19.768,0H422V345Z" transform="translate(-421.084 -344.084)"/><path class="d" d="M482.773,399.816H469.834a.916.916,0,0,1-.915-.868,8.98,8.98,0,0,0-17.938,0,.916.916,0,0,1-.915.868h-29.15A.916.916,0,0,1,420,398.9V343.916a.916.916,0,0,1,.916-.916h61.857a.917.917,0,0,1,.916.916V398.9A.917.917,0,0,1,482.773,399.816Zm-12.106-1.833h11.19V344.833H421.833v53.151h27.4a10.809,10.809,0,0,1,21.433,0Z" transform="translate(-420 -343)"/></g><rect class="f" width="97.901" height="6.92" transform="translate(97.901 43.796) rotate(180)"/><path class="f" d="M389.73,363.73h7.859v-4.186a3.93,3.93,0,0,0-3.93-3.93h0a3.93,3.93,0,0,0-3.93,3.93Z" transform="translate(-367.86 -349.834)"/><circle class="d" cx="7.556" cy="7.556" r="7.556" transform="translate(65.015 56.919) rotate(-47.574)"/><circle class="d" cx="7.227" cy="7.227" r="7.227" transform="matrix(0.686, -0.727, 0.727, 0.686, 8.066, 56.735)"/><path class="e" d="M459.647,368.8a12.814,12.814,0,1,0,12.814-12.814A12.814,12.814,0,0,0,459.647,368.8ZM464,366.239h5.638V360.6h6.151v5.639h5.126v6.151h-5.126v5.125h-6.151V372.39H464Z" transform="translate(-405.741 -350.036)"/><path class="e" d="M384.175,381H369.358l-8.714,13.288h23.531Z" transform="translate(-352.102 -363.589)"/></g><g transform="translate(275.298 115.827)"><path class="f" d="M822.5,395.477v0h-9.029a10.411,10.411,0,0,1-4.624,8.584,16.663,16.663,0,0,0-7.375,13.672,16.5,16.5,0,1,0,25.6-13.7A10.335,10.335,0,0,1,822.5,395.477Z" transform="translate(-801.474 -369.358)"/><g transform="translate(10.321)"><path class="h" d="M836.08,362.251h-2.593l-.864-20.475a1.347,1.347,0,0,0-1.289-1.3,1.377,1.377,0,0,0-1.288,1.332l-.864,20.443H826v3.207h10.08Z" transform="translate(-825.084 -339.56)"/><path class="d" d="M835,365.292h-10.08a.917.917,0,0,1-.916-.916v-3.207a.917.917,0,0,1,.916-.916h2.3l.827-19.566a2.2,2.2,0,0,1,4.408-.033l.827,19.6H835a.917.917,0,0,1,.916.916v3.207A.917.917,0,0,1,835,365.292Zm-9.164-1.833h8.248v-1.375H832.4a.916.916,0,0,1-.916-.878l-.864-20.476a.437.437,0,0,0-.373-.422c-.172,0-.364.233-.373.454l-.864,20.443a.916.916,0,0,1-.915.878h-2.266Z" transform="translate(-824 -338.476)"/></g></g><g transform="translate(343.525 98.144)"><g transform="translate(0)"><rect class="f" width="7.241" height="8.294" rx="2.464" transform="translate(19.015)"/><path class="d" d="M976.794,368.467H943.606a5.773,5.773,0,0,1-5.083-8.511l15.722-29.2V308.943a.974.974,0,0,1,.974-.974h10.664a.974.974,0,0,1,.974.974v22.432L981.9,360.006a5.774,5.774,0,0,1-5.111,8.46Zm-20.6-58.549V331a.974.974,0,0,1-.116.462l-15.838,29.414a3.825,3.825,0,0,0,3.368,5.639h33.189a3.826,3.826,0,0,0,3.387-5.605l-15.161-28.844a.975.975,0,0,1-.112-.453v-21.7Z" transform="translate(-937.825 -304.265)"/><path class="e" d="M951.383,406.029h27.363c3.074,0,6.521-.992,3.734-5.982l-8.754-17.133H956.6l-8.933,17.1C944.943,404.2,948.293,406.029,951.383,406.029Z" transform="translate(-942.613 -344.87)"/></g></g><g transform="translate(32.569 143.93)"><g transform="translate(0 0)"><path class="e" d="M277.572,412.942a.943.943,0,0,1-.447-1.157l.556-1.521a3.126,3.126,0,0,0,.114-1.823l-.779-6.8a1.827,1.827,0,1,0-3.655,0l-.7,6.823a3.91,3.91,0,0,0,.265,1.867l.384,1.473a.958.958,0,0,1-.479,1.089l-.418.221a1.3,1.3,0,0,0-.69,1.146v20.069c0,1.265.763,2.768,2.223,2.768h2.5c1.46,0,2.147-1.5,2.147-2.768V414.264a1.3,1.3,0,0,0-.692-1.146Z" transform="translate(-271.724 -399.811)"/></g><g transform="translate(8.935 0)"><path class="f" d="M297.072,412.942a.943.943,0,0,1-.447-1.157l.556-1.521a3.126,3.126,0,0,0,.114-1.823l-.779-6.8a1.827,1.827,0,1,0-3.654,0l-.7,6.823a3.91,3.91,0,0,0,.265,1.867l.384,1.473a.958.958,0,0,1-.479,1.089l-.418.221a1.3,1.3,0,0,0-.69,1.146v20.069c0,1.265.763,2.768,2.223,2.768h2.5c1.46,0,2.147-1.5,2.147-2.768V414.264a1.3,1.3,0,0,0-.692-1.146Z" transform="translate(-291.224 -399.811)"/></g><g transform="translate(17.87 0)"><path class="d" d="M316.572,412.942a.943.943,0,0,1-.447-1.157l.556-1.521a3.126,3.126,0,0,0,.114-1.823l-.779-6.8a1.827,1.827,0,1,0-3.654,0l-.7,6.823a3.91,3.91,0,0,0,.265,1.867l.384,1.473a.958.958,0,0,1-.479,1.089l-.418.221a1.3,1.3,0,0,0-.69,1.146v20.069c0,1.265.763,2.768,2.223,2.768h2.5c1.46,0,2.147-1.5,2.147-2.768V414.264a1.3,1.3,0,0,0-.692-1.146Z" transform="translate(-310.724 -399.811)"/></g></g><g transform="translate(308.938 142.184)"><path class="d" d="M895.6,440.26H880.371a4.3,4.3,0,0,1-4.3-4.3v-27.6a.974.974,0,0,1,.974-.974h21.875a.974.974,0,0,1,.974.974v27.6A4.3,4.3,0,0,1,895.6,440.26Zm-17.577-30.92v26.623a2.352,2.352,0,0,0,2.35,2.349H895.6a2.352,2.352,0,0,0,2.35-2.349V409.34Z" transform="translate(-875.531 -402.172)"/><rect class="e" width="24.691" height="7.201" rx="2.234" transform="translate(0 0.241)"/><path class="d" d="M881.916,403.789a.916.916,0,0,1-.916-.916v-5.957a.916.916,0,0,1,1.833,0v5.957A.917.917,0,0,1,881.916,403.789Z" transform="translate(-878.201 -396)"/><path class="d" d="M890.916,403.789a.916.916,0,0,1-.916-.916v-5.957a.916.916,0,1,1,1.833,0v5.957A.917.917,0,0,1,890.916,403.789Z" transform="translate(-883.077 -396)"/><path class="d" d="M899.916,403.789a.916.916,0,0,1-.916-.916v-5.957a.916.916,0,1,1,1.833,0v5.957A.917.917,0,0,1,899.916,403.789Z" transform="translate(-887.953 -396)"/><path class="d" d="M908.916,403.789a.916.916,0,0,1-.916-.916v-5.957a.916.916,0,0,1,1.833,0v5.957A.917.917,0,0,1,908.916,403.789Z" transform="translate(-892.83 -396)"/><path class="d" d="M917.916,403.789a.916.916,0,0,1-.916-.916v-5.957a.916.916,0,0,1,1.833,0v5.957A.917.917,0,0,1,917.916,403.789Z" transform="translate(-897.706 -396)"/><path class="e" d="M892.466,419.568a8.122,8.122,0,1,0,8.122,8.122A8.122,8.122,0,0,0,892.466,419.568Zm5.36,10.4h-3.573v3.249h-3.9v-3.249h-3.249v-3.9h3.249v-3.573h3.9v3.573h3.573Z" transform="translate(-880.013 -408.769)"/><path class="f" d="M899.5,461.833H883.916a.916.916,0,0,1,0-1.833H899.5a.916.916,0,0,1,0,1.833Z" transform="translate(-879.284 -430.675)"/><path class="f" d="M899.5,468.833H883.916a.916.916,0,0,1,0-1.833H899.5a.916.916,0,0,1,0,1.833Z" transform="translate(-879.284 -434.468)"/></g></g></g></svg>