<svg xmlns="http://www.w3.org/2000/svg" width="24.69" height="22" viewBox="0 0 24.69 22"><defs><style>.a{fill:#54d8b1;}.b{fill:#fff;fill-rule:evenodd;}.c{fill:none;stroke:#fff;stroke-linecap:round;stroke-width:1.4px;}</style></defs><g transform="translate(-43 -351)"><circle class="a" cx="11" cy="11" r="11" transform="translate(43 351)"/><path class="b" d="M236.785,526.807l4.544,4.544,8.282-8.282.1-.1.011.01a.692.692,0,0,1,.118-.063.686.686,0,0,1,.832,1.015l.01.011-.094.094L242.2,532.42l-.776.776-.1.1-.1-.1-.776-.776-4.642-4.642a.7.7,0,1,1,.971-.971Z" transform="translate(-189.519 -164.869)"/><line class="c" y1="8" x2="8" transform="translate(58.7 352.5)"/></g></svg>