<svg xmlns="http://www.w3.org/2000/svg" xmlns:xlink="http://www.w3.org/1999/xlink" width="100" height="100" viewBox="0 0 100 100"><defs><style>.a{fill:none;}.b{clip-path:url(#a);}.c{fill:#fff;}.d,.e{fill:#67d9f7;stroke:rgba(0,0,0,0);}.e{fill-rule:evenodd;}</style><clipPath id="a"><rect class="a" width="100" height="100"/></clipPath></defs><g class="b"><path class="c" d="M50,0A50,50,0,1,1,0,50,50,50,0,0,1,50,0Z"/><g transform="translate(-174.66 -153.337)"><path class="d" d="M226.538,192l-12.364,2.283c-.79,2.911-2.061,6.219-4.382,8.245a1.482,1.482,0,0,1-1.951-2.23c1.98-1.728,3.076-5.134,3.686-7.618a1.483,1.483,0,0,1,1.181-1.14l13.984-2.582a2.631,2.631,0,0,0,2.277-1.856,2.48,2.48,0,0,0,.041-1,2.391,2.391,0,0,0-.342-.91,2.054,2.054,0,0,0-2.176-.84L209.776,187.1c-8.791,1.449-11.788,8.381-10.68,16.616a1.482,1.482,0,0,1-2.939.395,24,24,0,0,1,.037-7.149l-3.536.149v-2.966l4.3-.181c1.983-5.6,6.513-8.83,12.337-9.79l16.717-2.755a4.9,4.9,0,0,1,5.137,2.165,5.345,5.345,0,0,1,.783,2.036,5.448,5.448,0,0,1-.087,2.2,5.315,5.315,0,0,1-.469,1.219l19.008,0c6.345,0,6.171,10.15,0,10.15h-9.4l.015.034a5.113,5.113,0,0,1-2.656,6.718c1.556,2.468.769,6.261-2.121,7.356a4.792,4.792,0,0,1-4.594,6.981l-7.744-.473a5.757,5.757,0,0,1-1.738-.366l-2.562.117-11.537.525a11.108,11.108,0,0,1-5.626-.847,6.747,6.747,0,0,1-1.75-1.263l-8.015.806V215.8l6.126-.616c-.072-.151-.142-.305-.212-.464a1.482,1.482,0,0,1,2.718-1.185,5.67,5.67,0,0,0,2.457,3.052,8.585,8.585,0,0,0,4.174.534l11.505-.524a4.953,4.953,0,0,1,.262-3.813c.074-.147.156-.291.244-.431a4.512,4.512,0,0,1-1.753-2.271,5.314,5.314,0,0,1,.107-3.832,4.942,4.942,0,0,1,.39-.739,4.731,4.731,0,0,1-1.671-2.145,5.393,5.393,0,0,1-.377-2.023,5.542,5.542,0,0,1,.388-2.014,4.787,4.787,0,0,1,4.63-3.112h28.741c2.254,0,2.392-4.216,0-4.216l-23.851,0Zm9.728,7.192H221.648a1.925,1.925,0,0,0-1.878,1.231,2.561,2.561,0,0,0-.179.933,2.416,2.416,0,0,0,.168.908,1.885,1.885,0,0,0,1.888,1.14h14.371c3.237,0,3.174-4.212.248-4.212Zm-1.827,11.435c2.274.093,2.472-3.863-.29-3.919l-11.662-.235a1.5,1.5,0,0,0-1.471.94,2.318,2.318,0,0,0-.048,1.66,1.616,1.616,0,0,0,1.547,1.066l11.925.488Zm-10.379,6.219,7.744.473c2.377.145,2.918-3.485-.09-3.674l-7.6-.474a1.834,1.834,0,0,0-1.773.949,2.03,2.03,0,0,0-.1,1.55,1.9,1.9,0,0,0,1.821,1.176Z"/><path class="e" d="M401.35,302.6a6.69,6.69,0,0,0,5.571-10.393h0l-.017-.025-.016-.024-5.539-8.191-5.535,8.186-.023.034-.014.02h0A6.69,6.69,0,0,0,401.35,302.6Z" transform="translate(-151.952 -77.2)"/></g></g></svg>