<svg xmlns="http://www.w3.org/2000/svg" xmlns:xlink="http://www.w3.org/1999/xlink" width="100" height="100" viewBox="0 0 100 100"><defs><style>.a{fill:none;}.b{clip-path:url(#a);}.c{fill:#fff;}.d{fill:#67d9f7;stroke:rgba(0,0,0,0);}</style><clipPath id="a"><rect class="a" width="100" height="100"/></clipPath></defs><g class="b"><path class="c" d="M50,0A50,50,0,1,1,0,50,50,50,0,0,1,50,0Z"/><g transform="translate(-695.66 -678.05)"><path class="d" d="M795.6,743.345a1.642,1.642,0,1,1-2.441,2.2c-4.555-5.052-8.891-8.745-13.132-11.016a14.27,14.27,0,1,1-24.315,10.135q0-.682.063-1.348a.548.548,0,0,1,1.048-.169,6.6,6.6,0,1,0,3.945-8.9c-4.463,2.246-9.1,6.081-14.063,11.572a1.637,1.637,0,0,1-2.427-2.2c9.246-10.239,17.671-15.134,26.066-15.055s16.554,5.131,25.257,14.784Z" transform="translate(-24.241 -16.438)"/><path class="d" d="M774.22,734.837c-9.733,10.2-18.987,15.462-28.344,15.555-9.2.092-18.318-4.812-27.9-14.926a4.605,4.605,0,0,1-3.888.714,4.75,4.75,0,0,1-3.186-3.268,6.45,6.45,0,0,1,1.354-5.943c1.4-1.752,3-3.534,4.524-5.161C726.938,711,736.768,705.744,746.7,706.064c10.8.348,21.5,7.3,32.639,20.887a1.638,1.638,0,0,1-2.531,2.081c-10.514-12.821-20.421-19.377-30.212-19.692-8.938-.288-17.962,4.632-27.446,14.743-1.445,1.54-3,3.268-4.33,4.93a3.251,3.251,0,0,0-.777,2.95,1.527,1.527,0,0,0,.939,1.058,1.706,1.706,0,0,0,1.53-.55,2.279,2.279,0,0,1,1.766-.6,2.482,2.482,0,0,1,1.593.818c9.1,9.776,17.592,14.517,25.982,14.433,7.817-.078,15.674-4.388,24.111-12.626,1.237-1.209,6.049-1.536,4.259.346Z" transform="translate(0 0)"/></g></g></svg>