<svg xmlns="http://www.w3.org/2000/svg" xmlns:xlink="http://www.w3.org/1999/xlink" width="100" height="100" viewBox="0 0 100 100"><defs><style>.a{fill:none;}.b{clip-path:url(#a);}.c{fill:#fff;}.d{fill:#67d9f7;stroke:rgba(0,0,0,0);}</style><clipPath id="a"><rect class="a" width="100" height="100"/></clipPath></defs><g class="b"><circle class="c" cx="50" cy="50" r="50"/><g transform="translate(-1737.975 -109.255)"><path class="d" d="M1824.7,177.422a.857.857,0,0,1,.028.188.806.806,0,0,0,.1.216,1.247,1.247,0,0,0,.541.452,1.578,1.578,0,0,0,.4.121,3.15,3.15,0,0,0,1.152-.062,5.569,5.569,0,0,0,1.121-.376,4.93,4.93,0,0,1,.4-.807,6.4,6.4,0,0,1,.575-.8,3.578,3.578,0,0,1,1.73-1.165,2.61,2.61,0,0,1,1.28-.032,4.787,4.787,0,0,1,1.36-1.188,5.605,5.605,0,0,1,2.612-.7,4.507,4.507,0,0,1,2.209-1.783,5.665,5.665,0,0,1,3.557-.181.839.839,0,0,1-.427,1.623,4,4,0,0,0-2.512.122,2.446,2.446,0,0,0-1.487,1.3h0a.839.839,0,0,1-.818.592,4.315,4.315,0,0,0-2.293.486,3.458,3.458,0,0,0-1.159,1.153.839.839,0,0,1-1.114.332,1.036,1.036,0,0,0-.768-.1,1.9,1.9,0,0,0-.882.626,4.851,4.851,0,0,0-.431.587,3.236,3.236,0,0,0-.277.573l.04.189a2.373,2.373,0,0,0,.449,1.168,3.132,3.132,0,0,0,1.373.8,5.664,5.664,0,0,0,2.069.208c.211-.015.456-.237.818-.567l.02-.018a.84.84,0,0,1,1.37.382c.1.3.213.448.347.485a1.692,1.692,0,0,0,.963-.18.84.84,0,0,1,.865.147,29.1,29.1,0,0,1,2.945,2.811c.235.256.47.52.7.789.022-.162.046-.312.069-.455s.047-.29.061-.423c-.068-.008-.135-.018-.2-.029a.839.839,0,1,1,.263-1.656,3.916,3.916,0,0,0,.7.049h.039a3.941,3.941,0,0,0,1.283-.259,5.353,5.353,0,0,0,1.92-1.318,3.463,3.463,0,0,0,.71-1.383,1.538,1.538,0,0,0,.074-.891h0l-.009-.014-.013-.024a1.339,1.339,0,0,0-.723-.541c-.026-.007-.052-.016-.077-.025a4.822,4.822,0,0,0-2.171.013,15.252,15.252,0,0,0-4.484,1.723l-.036.02-.051.029a.838.838,0,0,1-.848-1.446l.052-.03.041-.025a17.024,17.024,0,0,1,5.016-1.92,6.866,6.866,0,0,1,2.7-.039,2.857,2.857,0,0,0,1.256-1.029,2.244,2.244,0,0,0-.1-1.96,1.8,1.8,0,0,0-.406-.637.878.878,0,0,0-.411-.237.839.839,0,0,1-.661-.653,4.681,4.681,0,0,0-1.9-2.848c-.07-.059-.141-.118-.261-.222a12.72,12.72,0,0,0-5.371-2.292c-.38-.1-.761-.2-1.125-.3a8.559,8.559,0,0,0-3.492-.277,5.718,5.718,0,0,0-2.742,1.138h0a.838.838,0,0,1-.427.175,8.592,8.592,0,0,0-3.319.949,4.229,4.229,0,0,0-1.936,2.366.841.841,0,0,1-.506.545,2.268,2.268,0,0,0-1.057,1.071,4.672,4.672,0,0,0-.535,1.733,3.909,3.909,0,0,0,.2,1.791,2.807,2.807,0,0,0,.328.62.838.838,0,0,1,1.4.892,1.073,1.073,0,0,0-.085.273.79.79,0,0,0-.011.151Zm-1.558.745a4.306,4.306,0,0,1-1.646-2.084,5.583,5.583,0,0,1-.3-2.567,6.369,6.369,0,0,1,.732-2.364,4.17,4.17,0,0,1,1.561-1.661,5.817,5.817,0,0,1,2.569-2.965,9.935,9.935,0,0,1,3.742-1.138,7.45,7.45,0,0,1,3.351-1.334,10.213,10.213,0,0,1,4.169.323c.377.1.738.2,1.1.289a14.011,14.011,0,0,1,6.048,2.641l.254.215a6.134,6.134,0,0,1,2.345,3.317,2.673,2.673,0,0,1,.715.5,3.47,3.47,0,0,1,.793,1.222,3.779,3.779,0,0,1,.006,3.4,3.649,3.649,0,0,1-1.034,1.139,2.927,2.927,0,0,1,.327.436c.011.016.022.033.032.05l.009.014h0v0a2.949,2.949,0,0,1,.092,2.182,5.219,5.219,0,0,1-1.118,2.1,7.034,7.034,0,0,1-2.538,1.726,5.677,5.677,0,0,1-.978.276c-.016.24-.054.477-.1.736a7.352,7.352,0,0,0-.023,2.555,7.969,7.969,0,0,1,.24,2.639,15.81,15.81,0,0,1-.423,2.659,32.023,32.023,0,0,0-1.007,7.349,11.441,11.441,0,0,0,1.667,6.38.839.839,0,0,1-1.393.933,13.063,13.063,0,0,1-1.95-7.307,33.537,33.537,0,0,1,1.046-7.743,14.229,14.229,0,0,0,.383-2.37,6.43,6.43,0,0,0-.16-2,20.852,20.852,0,0,0-2.042-2.551,29.742,29.742,0,0,0-2.428-2.369,2.806,2.806,0,0,1-1.555.071,1.96,1.96,0,0,1-.944-.575,2.087,2.087,0,0,1-1.052.352,7.321,7.321,0,0,1-2.68-.28,4.785,4.785,0,0,1-2.1-1.264,2.965,2.965,0,0,1-.732-1.362,6.865,6.865,0,0,1-.854.247,4.8,4.8,0,0,1-1.777.075,3.248,3.248,0,0,1-.828-.253,2.928,2.928,0,0,1-1.264-1.083,2.54,2.54,0,0,1-.263-.553Z" transform="translate(-44.372 -25.041)"/><path class="d" d="M1809.57,183.128a1.28,1.28,0,1,1-2.233,1.252c-.173-.309-.38-.644-.634-1.057-1.789-2.906-5.574-9.054-4.749-13.542a25.305,25.305,0,0,1,3.168-7.838c1.69-3.09,3.428-6.269,3.428-11.193a14.967,14.967,0,0,0-4.967-11.324,18.983,18.983,0,0,0-12.8-4.607,16.692,16.692,0,0,0-3.156.3,20.271,20.271,0,0,0-10.62,5.894c-2.729,2.859-4.454,6.372-4.454,9.819a9.861,9.861,0,0,0,.174,1.865c.279,1.442-1.412,4.284-3.194,7.28-.668,1.122-1.35,2.269-1.96,3.388a.405.405,0,0,0-.029.076.1.1,0,0,0,0,.064.341.341,0,0,0,.148.132.711.711,0,0,0,.14.053c.575.165,1.586.362,2.4.521.363.071.689.134.932.186a1.283,1.283,0,0,1,.921,1.734c-.074.214-.143.427-.211.641-.136.419-.271.841-.452,1.311.134.031.272.061.412.09a10.57,10.57,0,0,0,1.652.235,1.277,1.277,0,0,1-.06,2.554,10.648,10.648,0,0,1-1.447-.161c1.156.9.828,2.044.431,3.424a3.306,3.306,0,0,0-.142,2.035c.853,1.319,5.312,1.921,8.3,2.324.464.063.9.122,1.054.143a5.616,5.616,0,0,1,3.506,1.57,13.225,13.225,0,0,1,2.379,4,1.278,1.278,0,1,1-2.333,1.042,11.351,11.351,0,0,0-1.858-3.236,3.346,3.346,0,0,0-2.054-.839c-.491-.07-.755-.106-1.034-.143-3.512-.474-8.779-1.185-10.194-3.606l0,0a1.263,1.263,0,0,1-.069-.138,5.191,5.191,0,0,1-.018-3.848c.144-.5.255-.887-.525-1.129a1.28,1.28,0,0,1-.272-2.323l-.049-.023a1.279,1.279,0,0,1-.581-1.713,13.832,13.832,0,0,0,.711-1.713c-.756-.149-1.571-.317-2.1-.469a3.279,3.279,0,0,1-.661-.273,2.882,2.882,0,0,1-1.23-1.274,2.594,2.594,0,0,1-.156-1.867,2.967,2.967,0,0,1,.249-.6c.583-1.07,1.3-2.282,2.01-3.468,1.524-2.562,2.971-4.993,2.874-5.5a12.372,12.372,0,0,1-.224-2.346c0-4.127,2-8.266,5.166-11.581a22.881,22.881,0,0,1,11.992-6.646,19.242,19.242,0,0,1,3.637-.354,21.535,21.535,0,0,1,14.511,5.278,17.48,17.48,0,0,1,5.818,13.217c0,5.561-1.9,9.036-3.749,12.415a23.313,23.313,0,0,0-2.9,7.077c-.649,3.526,2.785,9.1,4.408,11.739.313.508.568.922.694,1.147Z"/></g></g></svg>