<svg xmlns="http://www.w3.org/2000/svg" xmlns:xlink="http://www.w3.org/1999/xlink" width="100" height="100" viewBox="0 0 100 100"><defs><style>.a{fill:none;}.b{clip-path:url(#a);}.c{fill:#fff;}.d{fill:#67d9f7;stroke:rgba(0,0,0,0);}</style><clipPath id="a"><rect class="a" width="100" height="100"/></clipPath></defs><g class="b"><circle class="c" cx="50" cy="50" r="50"/><g transform="translate(-178.656 -647.275)"><path class="d" d="M366.485,747.151a1.077,1.077,0,1,1,.556-2.08l12.3,3.3a1.076,1.076,0,1,1-.556,2.08l-12.3-3.3Zm3.741-8.079a1.078,1.078,0,0,1,0-2.156h14.589a1.078,1.078,0,1,1,0,2.156Zm1.457-9.4a1.077,1.077,0,0,1-.556-2.08l7.661-2.053a1.077,1.077,0,0,1,.556,2.08l-7.661,2.053Z" transform="translate(-120.554 -42.536)"/><path class="d" d="M206.956,679.658a1.611,1.611,0,0,1-2.918-1.364,19.014,19.014,0,0,1,6.923-7.893,19.932,19.932,0,0,1,30.646,16.463,21.173,21.173,0,0,1-4.906,14.079,69.181,69.181,0,0,1-5.163,5.672c-2.755,2.767-4.5,4.52-7.784,12.2a13.118,13.118,0,0,1-7.745,7.663,11.627,11.627,0,0,1-6.064.377,11.822,11.822,0,0,1-5.362-2.614,11.287,11.287,0,0,1-3.926-8.712,1.617,1.617,0,1,1,3.234,0,8.117,8.117,0,0,0,2.8,6.274,8.57,8.57,0,0,0,3.884,1.894,8.435,8.435,0,0,0,4.4-.276,9.967,9.967,0,0,0,5.812-5.869c3.527-8.254,5.442-10.177,8.466-13.213a66.579,66.579,0,0,0,4.948-5.432,17.99,17.99,0,0,0,4.186-11.957,16.674,16.674,0,0,0-17.212-16.447,16.483,16.483,0,0,0-8.469,2.612,15.771,15.771,0,0,0-5.747,6.541Zm8.146,14.85a1.614,1.614,0,0,1-2.074-.4,11.288,11.288,0,0,1,.58-15.261,11.086,11.086,0,0,1,7.9-3.3,11.205,11.205,0,0,1,11.152,10.8,1.612,1.612,0,1,1-3.221.126,7.966,7.966,0,0,0-7.93-7.69,7.874,7.874,0,0,0-5.609,2.34,8.021,8.021,0,0,0-1.485,2.077,11.448,11.448,0,0,1,10.924,3.078,11.652,11.652,0,0,1,3.386,8.227,12.531,12.531,0,0,1-1.517,6.014,9.995,9.995,0,0,1-4.179,4.123A13.378,13.378,0,0,1,220,705.685c-1.771.447-3.36.848-4.208,4.3a5.919,5.919,0,0,1-1.983,3.187,5.542,5.542,0,0,1-7.48-.394,5.66,5.66,0,0,1-.39-7.534,1.613,1.613,0,0,1,2.514,2.021,2.451,2.451,0,0,0,.162,3.239,2.359,2.359,0,0,0,1.68.7,2.3,2.3,0,0,0,1.467-.52,2.719,2.719,0,0,0,.9-1.469c1.312-5.342,3.792-5.968,6.558-6.666a11.07,11.07,0,0,0,2.335-.776,6.783,6.783,0,0,0,2.814-2.81,9.287,9.287,0,0,0,1.113-4.46,8.427,8.427,0,0,0-2.438-5.953,8.306,8.306,0,0,0-8.108-2.157,8.161,8.161,0,0,0-1.366.518,8.066,8.066,0,0,0,1.3,4.289,4.264,4.264,0,0,1,.775-.071,4.326,4.326,0,0,1,0,8.651,1.617,1.617,0,0,1,0-3.234,1.091,1.091,0,1,0,0-2.183,1.1,1.1,0,0,0-.284.035,1.083,1.083,0,0,0-.261.107Z"/></g></g></svg>