<svg xmlns="http://www.w3.org/2000/svg" xmlns:xlink="http://www.w3.org/1999/xlink" width="100" height="100" viewBox="0 0 100 100"><defs><style>.a{fill:none;}.b{clip-path:url(#a);}.c{fill:#fff;}.d{fill:#67d9f7;stroke:rgba(0,0,0,0);}</style><clipPath id="a"><rect class="a" width="100" height="100"/></clipPath></defs><g class="b"><circle class="c" cx="50" cy="50" r="50"/><g transform="translate(-1232.722 -664.235)"><path class="d" d="M1324.53,847.263a1.669,1.669,0,1,1,1.7-2.874c.5.293.928.561,1.33.811a8.9,8.9,0,0,0,10.671,0c.4-.249.833-.517,1.33-.811a1.669,1.669,0,1,1,1.7,2.874c-.452.267-.873.529-1.265.772-2.262,1.4-3.683,2.286-7.1,2.286s-4.837-.882-7.1-2.286c-.392-.243-.813-.5-1.265-.772Z" transform="translate(-50.479 -113.902)"/><path class="d" d="M1272.712,687.781a1.671,1.671,0,0,1,3.332.248,54.711,54.711,0,0,1-2.527,11.689,74.825,74.825,0,0,0-1.955,7.551,40.59,40.59,0,0,0-.65,5.88c-.218,4.241-.293,5.707-6.01,9.15-4.623,2.784-6.977,5.884-7.64,8.7a6.407,6.407,0,0,0,2.5,6.855,10.693,10.693,0,0,0,8.506,1.471,1.671,1.671,0,0,1,.64,3.28,13.973,13.973,0,0,1-11.133-2.073,9.742,9.742,0,0,1-3.768-10.291c.855-3.628,3.692-7.5,9.169-10.8,4.2-2.53,4.254-3.539,4.4-6.459a43.531,43.531,0,0,1,.7-6.324,77.262,77.262,0,0,1,2.033-7.878,52.013,52.013,0,0,0,2.4-11Zm16.075.248a1.67,1.67,0,1,1,3.332-.248,51.982,51.982,0,0,0,2.4,11,77.2,77.2,0,0,1,2.033,7.878,43.567,43.567,0,0,1,.7,6.324c.15,2.919.2,3.929,4.4,6.459,5.477,3.3,8.314,7.175,9.169,10.8a9.743,9.743,0,0,1-3.768,10.291,13.973,13.973,0,0,1-11.133,2.073,1.671,1.671,0,0,1,.64-3.28,10.694,10.694,0,0,0,8.506-1.471,6.405,6.405,0,0,0,2.5-6.855c-.664-2.815-3.017-5.916-7.64-8.7-5.718-3.443-5.792-4.909-6.01-9.15a40.692,40.692,0,0,0-.65-5.88,74.858,74.858,0,0,0-1.954-7.551,54.667,54.667,0,0,1-2.527-11.689Zm-23.121,49.436a1.668,1.668,0,1,1,.183-3.332,14.834,14.834,0,0,1,7.658,2.82,15.535,15.535,0,0,0,17.818,0,14.833,14.833,0,0,1,7.657-2.82,1.668,1.668,0,0,1,.183,3.332,12.117,12.117,0,0,0-6.076,2.324,18.824,18.824,0,0,1-21.346,0,12.118,12.118,0,0,0-6.077-2.324Z" transform="translate(0 0)"/></g></g></svg>