<svg xmlns="http://www.w3.org/2000/svg" xmlns:xlink="http://www.w3.org/1999/xlink" width="100" height="100" viewBox="0 0 100 100"><defs><style>.a{fill:none;}.b{clip-path:url(#a);}.c{fill:#fff;}.d,.e{fill:#17caff;stroke:rgba(0,0,0,0);}.e{fill-rule:evenodd;}</style><clipPath id="a"><rect class="a" width="100" height="100"/></clipPath></defs><g class="b"><circle class="c" cx="50" cy="50" r="50"/><g transform="translate(-197.418 -1148.271)"><path class="d" d="M245.95,1224.926a.936.936,0,1,1-.521-1.8,8.8,8.8,0,0,1,1.515-.283,14.754,14.754,0,0,1,1.763-.069.475.475,0,0,0,.332-.129.468.468,0,0,0,.149-.318,17.473,17.473,0,0,0-.807-6.82,9.7,9.7,0,0,1,.626-3.05c1.525,2.486,2.279,5.71,2.053,9.965a2.345,2.345,0,0,1-2.383,2.224,12.918,12.918,0,0,0-1.543.061,6.912,6.912,0,0,0-1.184.217Zm-7.59-17.407c-1.3-.38-2.688-.7-4.147-.984a.938.938,0,1,1,.352-1.843,47.215,47.215,0,0,1,4.613,1.115,17.86,17.86,0,0,0-.819,1.713Zm37.537,2.7a.938.938,0,1,1-.558,1.792,26.354,26.354,0,0,0-9.993-1.309,23.061,23.061,0,0,0-9.895,3.247.938.938,0,0,1-1.281-.341.957.957,0,0,1-.047-.092h0a16.1,16.1,0,0,0-2.616-4.1,2.091,2.091,0,0,1,2.514.154,17.793,17.793,0,0,1,1.378,2.261,24.474,24.474,0,0,1,9.8-3,28.178,28.178,0,0,1,10.7,1.39Zm-34.87-7.111a29.436,29.436,0,0,0-4.2-.864.937.937,0,1,1,.242-1.858,30.965,30.965,0,0,1,5.451,1.214,14.233,14.233,0,0,0-1.49,1.507Zm34.415,11.686a.938.938,0,0,1-.558,1.792,21.883,21.883,0,0,0-9.515-1.005,19.065,19.065,0,0,0-8.027,3.132,21.238,21.238,0,0,1,.057,2.516,23.708,23.708,0,0,1-.342,3.244.458.458,0,0,0,.3.531c.6.293,1.2.608,1.782.951.606.355,1.413.923,2.008,1.335a.9.9,0,1,1-1.024,1.484c-.183-.126-.616-.379-.8-.5a10.8,10.8,0,0,1,.081,4.441,21.26,21.26,0,0,1-.722,2.939,9.49,9.49,0,0,0,.386,3.037,9.813,9.813,0,0,1,.286,4.719.937.937,0,0,1-1.836-.382,7.986,7.986,0,0,0-.231-3.73c-.806,1.838-1.7,3.587-2.485,5.108l-.249.485a.936.936,0,1,1-1.667-.852l.249-.485a62.582,62.582,0,0,0,3.548-7.81q-.16.129-.325.256a22.957,22.957,0,0,1-6.418,3.387.936.936,0,1,1-.565-1.784,20.936,20.936,0,0,0,5.845-3.093,8.871,8.871,0,0,0,2.07-2.081,4.659,4.659,0,0,0,.291-3.347,5.009,5.009,0,0,0-1.258-2.507,2.334,2.334,0,0,1-1.125-2.427,21.818,21.818,0,0,0,.32-2.987,19.211,19.211,0,0,0-.1-2.81h0a.937.937,0,0,1,.4-.873,21.141,21.141,0,0,1,9.3-3.756,23.709,23.709,0,0,1,10.323,1.071Z" transform="translate(-6.911 -24.564)"/><path class="e" d="M258.362,1195.821c-1.979-7.347.7-17.131,8.595-19.33,1.113-1.893,1.41-4.7,1.021-8.22h5.51a11.891,11.891,0,0,1-.684,7.693,23.876,23.876,0,0,0,4.672-6.8l6.139,1.289a26.263,26.263,0,0,1-5.206,8.477,16.093,16.093,0,0,1,2.632,3.438l-6.168,2.347c-3.39-6.33-12.178-.244-9.909,10.136.746,3.412-5.986,3.258-6.6.973Z" transform="translate(-25.49)"/><path class="d" d="M227.936,1260.833a1.406,1.406,0,1,1,2.258,1.674,8.16,8.16,0,0,0-1.363,6.62,13.134,13.134,0,0,0,4.271,7.117c3.238,2.823,10.881,11.942,14.267,11.763a4.62,4.62,0,0,0,1.579-.41c5.264-2.292,9.588-10.2,9.292-15.814a10.336,10.336,0,0,0-.819-3.6c-.193-.444-.035-.086-.084-.2-.654-1.473-.752-1.694.561-3.2a8.568,8.568,0,0,0,.744-.99,6.771,6.771,0,0,0,1.122-4.51,7.14,7.14,0,0,0-1.5-3.459q.252-.043.508-.078a16.036,16.036,0,0,1,2.7-.131,9.4,9.4,0,0,1,1.083,3.327,9.536,9.536,0,0,1-1.551,6.372,11.453,11.453,0,0,1-1,1.32c-.135.155-.132.163-.11.212.105.238-.035-.09.1.209a13.145,13.145,0,0,1,1.05,4.579c.357,6.789-4.623,15.768-10.977,18.535a7.414,7.414,0,0,1-2.559.641c-5.186.273-12.038-8.776-16.26-12.457a16,16,0,0,1-5.185-8.693,11.656,11.656,0,0,1-.005-4.711,8.939,8.939,0,0,1-.828-1.41,9.217,9.217,0,0,1-.2-7.1,13.706,13.706,0,0,1,4.055-5.764,13.29,13.29,0,0,1,1.1-.836,22.008,22.008,0,0,0-.282,3.937,10.548,10.548,0,0,0-2.22,3.6,6.761,6.761,0,0,0-.22,4.14q.221-.348.473-.689Z" transform="translate(0 -62.407)"/></g></g></svg>