<svg xmlns="http://www.w3.org/2000/svg" xmlns:xlink="http://www.w3.org/1999/xlink" width="100" height="100" viewBox="0 0 100 100"><defs><style>.a{fill:none;}.b{clip-path:url(#a);}.c{fill:#fff;}.d,.e{fill:#67d9f7;stroke:rgba(0,0,0,0);}.e{fill-rule:evenodd;}</style><clipPath id="a"><rect class="a" width="100" height="100"/></clipPath></defs><g class="b"><circle class="c" cx="50" cy="50" r="50"/><g transform="translate(-1755.607 -641.182)"><path class="d" d="M1825.846,701.351c-.126,4.86-2.7,10.322-5.26,13.6a13.5,13.5,0,0,1-2.227,2.311,4.172,4.172,0,0,1-2.58,1.047,2.352,2.352,0,0,1-1.421-.5c-1.431-1.118-1.087-3.412-.626-6.492a35.868,35.868,0,0,0,.554-8.312,18.6,18.6,0,0,0-2.98-8.806c-1.331-1.9-3.017-3.151-4.881-3.151a2.641,2.641,0,0,0-.469.038c-1.631.3-3.323,2.005-4.659,4.611a24.088,24.088,0,0,0-2.4,10.808,27.857,27.857,0,0,0,.447,4.99c.027.15.034.163.1.492a14.7,14.7,0,0,1,.359,2.8c0,2.082-.734,3.857-3.544,3.857-1.709,0-3.956-2.732-5.815-6.391a40.12,40.12,0,0,1-3.748-10.851,31.309,31.309,0,0,1-.037-10.8,11.626,11.626,0,0,0,.025-4.912c-.307-1.206-.72-2.433-1.141-3.685-1.793-5.331-3.717-11.054,1.1-15.153,6.176-5.251,10.69-3.739,15.083-2.268a18.894,18.894,0,0,0,4.62,1.138,23.636,23.636,0,0,0,6.054-.873c5.63-1.267,11.546-2.6,14.182,3.719,1.209,2.9,1.042,6.716.4,10.318a64.936,64.936,0,0,1-2.309,8.709c-.617,1.885-.264,3.39.2,5.355a29.915,29.915,0,0,1,.969,8.409Zm-7.53,11.823c2.262-2.9,4.541-7.686,4.65-11.891a27.506,27.506,0,0,0-.9-7.686c-.565-2.408-1-4.251-.129-6.9a62.127,62.127,0,0,0,2.207-8.313c.56-3.151.736-6.42-.222-8.714-1.7-4.08-6.407-3.022-10.885-2.014a25.507,25.507,0,0,1-6.867.94,21.1,21.1,0,0,1-5.354-1.284c-3.63-1.215-7.361-2.465-12.3,1.738-3.329,2.83-1.726,7.6-.233,12.036.454,1.351.9,2.675,1.208,3.888a13.874,13.874,0,0,1,.031,6.042,28.827,28.827,0,0,0,.026,9.927,37.106,37.106,0,0,0,3.477,10c1.4,2.747,2.707,4.8,3.24,4.8.517,0,.653-.444.653-.965a12.465,12.465,0,0,0-.3-2.242c-.007-.036-.014-.068-.1-.537a30.66,30.66,0,0,1-.5-5.5,27,27,0,0,1,2.724-12.118c1.745-3.4,4.178-5.673,6.715-6.136a5.489,5.489,0,0,1,.978-.094c2.9,0,5.385,1.742,7.241,4.394a21.577,21.577,0,0,1,3.5,10.218,38.164,38.164,0,0,1-.577,8.967c-.258,1.72-.463,3.087-.48,3.594a4.5,4.5,0,0,0,.476-.334,10.66,10.66,0,0,0,1.73-1.815Z" transform="translate(0 0)"/><path class="e" d="M1820.518,733.16c-.074-13.733,5.115-24.047,12.819-24.047,7.443,0,12.448,9.931,13.015,23.468,3.014-9.5-3.1-15.558-1.464-21.381,2.682-9.527,2.1-14.9-4.848-12.082-5.789,2.353-6.974,1.391-12.616-.5-5.29-2.241-10.755.359-7.5,8.459,3.9,9.7-3.9,15.061.594,26.081Z" transform="translate(-26.823 -26.315)"/></g></g></svg>