<svg xmlns="http://www.w3.org/2000/svg" xmlns:xlink="http://www.w3.org/1999/xlink" width="100" height="100" viewBox="0 0 100 100"><defs><style>.a{fill:none;}.b{clip-path:url(#a);}.c{fill:#fff;}.d,.e{fill:#67d9f7;stroke:rgba(0,0,0,0);}.e{fill-rule:evenodd;}</style><clipPath id="a"><rect class="a" width="100" height="100"/></clipPath></defs><g class="b"><circle class="c" cx="50" cy="50" r="50"/><g transform="translate(-1242.68 -115.277)"><path class="d" d="M1274.339,197.163c.032.271-2.638.138-3.049.138-.459-4.931-.625-10.721-.608-15.673.016-4.579,1.275-14.981,3.282-19.282a5.22,5.22,0,0,1,.991-1.49c2.451-2.765,7.725-5.548,10.786-6.676a1.524,1.524,0,0,1,1.813.617,19.324,19.324,0,0,0,4.983,4.448,19.035,19.035,0,0,0,5.014-4.493,1.522,1.522,0,0,1,1.781-.571h0c3.378,1.244,9.448,4.5,11.45,7.531a1.487,1.487,0,0,1,.139.262c2.175,4.5,3.453,14.478,3.471,19.656.017,5.041-.246,10.636-.612,15.673h-3.056c.134-5.252.648-10.312.629-15.673-.016-4.489-1.243-14.447-3.126-18.262-1.488-2.208-6.425-4.872-8.909-5.917a26.285,26.285,0,0,1-5.928,4.874,1.52,1.52,0,0,1-1.683.017,26.38,26.38,0,0,1-5.954-4.892c-2.483,1.044-7.42,3.708-8.909,5.917-1.883,3.815-3.11,13.773-3.125,18.262a141.324,141.324,0,0,0,.619,15.535Zm18.2-64.886c6.142,0,9.371,5.617,8.556,11.209A16.858,16.858,0,0,1,1298.2,151c-3.244,4.358-8.086,4.358-11.329,0a17.108,17.108,0,0,1-3.018-9.229c0-5.083,3.263-9.5,8.683-9.5Zm.925,3.113c-4.6-.67-7.093,3.367-6.466,7.667a13.769,13.769,0,0,0,2.319,6.134c2.007,2.7,4.437,2.7,6.444,0a13.976,13.976,0,0,0,2.41-7.418c0-3-1.54-5.921-4.707-6.383Z" transform="translate(0)"/><path class="e" d="M1329.622,268.073H1301.66v30.545h27.962V268.073ZM1307,288.917a1.017,1.017,0,0,1,1.017-1.017h6.609v-2.034h-8.135a1.017,1.017,0,0,1,0-2.034h8.135V281.8h-9.406a1.017,1.017,0,0,1,0-2.034h9.406v-2.034h-8.135a1.017,1.017,0,0,1,0-2.034h8.135v-2.033h-4.83a1.017,1.017,0,0,1,0-2.034h4.83v-.763a1.017,1.017,0,0,1,2.034,0v.763h4.853a1.017,1.017,0,0,1,0,2.034h-4.853V275.7h8.157a1.017,1.017,0,0,1,0,2.034h-8.157v2.034h9.428a1.017,1.017,0,0,1,0,2.034h-9.428v2.033h8.157a1.017,1.017,0,0,1,0,2.034h-8.157V287.9h6.632a1.017,1.017,0,0,1,1.017,1.017,1.031,1.031,0,0,1-.023.215v2.327a3.45,3.45,0,0,1-1.228,2.76,2.983,2.983,0,0,1-1.382.625,2.888,2.888,0,0,1-1.514-.149,3.291,3.291,0,0,1-1.925-2.163l-.842-2.6h-.735V294a1.017,1.017,0,0,1-2.034,0v-4.068h-.735l-.842,2.6a3.291,3.291,0,0,1-1.925,2.163,2.888,2.888,0,0,1-1.514.149,2.976,2.976,0,0,1-1.382-.625,3.449,3.449,0,0,1-1.229-2.76v-2.542Zm4.76,1.017h-2.727v1.526a1.462,1.462,0,0,0,.466,1.179.964.964,0,0,0,.444.2.872.872,0,0,0,.457-.046,1.31,1.31,0,0,0,.718-.884l.641-1.978Zm10.492,0h-2.727l.642,1.978a1.311,1.311,0,0,0,.717.884.872.872,0,0,0,.457.046.966.966,0,0,0,.445-.2,1.462,1.462,0,0,0,.466-1.179v-1.526Z" transform="translate(-23.104 -101.276)"/></g></g></svg>