<svg xmlns="http://www.w3.org/2000/svg" xmlns:xlink="http://www.w3.org/1999/xlink" width="111.857" height="33.143" viewBox="0 0 111.857 33.143"><defs><style>.a{fill:#fff;}.b{fill:#a6a6a6;}.c{fill:url(#a);}</style><linearGradient id="a" x1="-1.199" y1="2.436" x2="-1.199" y2="1.535" gradientUnits="objectBoundingBox"><stop offset="0" stop-color="#1a1a1a" stop-opacity="0.102"/><stop offset="0.123" stop-color="#212121" stop-opacity="0.153"/><stop offset="0.308" stop-color="#353535" stop-opacity="0.227"/><stop offset="0.532" stop-color="#575757" stop-opacity="0.318"/><stop offset="0.783" stop-color="#858585" stop-opacity="0.42"/><stop offset="1" stop-color="#b3b3b3" stop-opacity="0.51"/></linearGradient></defs><path class="a" d="M113.939,32.053a3.175,3.175,0,0,1-3.178,3.174H6.745a3.179,3.179,0,0,1-3.183-3.174V6.739A3.183,3.183,0,0,1,6.745,3.561H110.76a3.178,3.178,0,0,1,3.178,3.178V32.053Z" transform="translate(-2.824 -2.823)"/><path class="b" d="M107.936,33.143H3.92A3.921,3.921,0,0,1,0,29.231V3.917A3.923,3.923,0,0,1,3.92,0H107.936a3.925,3.925,0,0,1,3.92,3.917V29.23a3.92,3.92,0,0,1-3.92,3.913Z" transform="translate(0 0)"/><path d="M113.939,32.053a3.175,3.175,0,0,1-3.178,3.174H6.745a3.179,3.179,0,0,1-3.183-3.174V6.739A3.183,3.183,0,0,1,6.745,3.561H110.76a3.178,3.178,0,0,1,3.178,3.178V32.053Z" transform="translate(-2.824 -2.823)"/><path class="a" d="M65.567,36.119a4.8,4.8,0,0,1,2.289-4.031,4.923,4.923,0,0,0-3.876-2.1c-1.631-.172-3.212.975-4.043.975-.847,0-2.126-.959-3.505-.931a5.161,5.161,0,0,0-4.344,2.649c-1.879,3.251-.478,8.029,1.322,10.657.9,1.288,1.952,2.724,3.329,2.674,1.347-.055,1.85-.858,3.476-.858s2.083.858,3.488.825c1.446-.022,2.356-1.293,3.225-2.592a10.623,10.623,0,0,0,1.475-3A4.648,4.648,0,0,1,65.567,36.119Zm-2.653-7.855A4.728,4.728,0,0,0,64,24.875a4.819,4.819,0,0,0-3.115,1.611,4.5,4.5,0,0,0-1.111,3.264A3.98,3.98,0,0,0,62.914,28.264Z" transform="translate(-40.591 -19.722)"/><path class="c" d="M307.822,0H252.108L273.93,33.143h33.892a3.923,3.923,0,0,0,3.92-3.915V3.917A3.924,3.924,0,0,0,307.822,0Z" transform="translate(-199.886 0)"/><g transform="translate(35.175 14.917)"><path class="a" d="M179.126,83.209h-1.883l-1.031-3.24h-3.585l-.982,3.24h-1.833l3.552-11.03h2.194Zm-3.225-4.6-.933-2.88q-.148-.441-.556-2.078h-.033q-.164.7-.524,2.078l-.917,2.88Zm12.342.525a4.5,4.5,0,0,1-1.1,3.207,3.233,3.233,0,0,1-2.452,1.048,2.455,2.455,0,0,1-2.272-1.128v4.173h-1.767V77.87q0-1.274-.066-2.614h1.554l.1,1.261h.033A3.145,3.145,0,0,1,187.3,76.2a4.4,4.4,0,0,1,.94,2.931Zm-1.8.065a3.278,3.278,0,0,0-.524-1.915,1.811,1.811,0,0,0-1.539-.785,1.838,1.838,0,0,0-1.186.433,2.011,2.011,0,0,0-.7,1.138,2.31,2.31,0,0,0-.082.538v1.327a2.127,2.127,0,0,0,.532,1.465,1.767,1.767,0,0,0,1.383.6,1.812,1.812,0,0,0,1.554-.769A3.384,3.384,0,0,0,186.443,79.2Zm10.95-.065a4.5,4.5,0,0,1-1.1,3.207,3.235,3.235,0,0,1-2.453,1.048,2.455,2.455,0,0,1-2.271-1.128v4.173H189.8V77.87q0-1.274-.066-2.614h1.554l.1,1.261h.033a3.146,3.146,0,0,1,5.034-.312,4.4,4.4,0,0,1,.94,2.931Zm-1.8.065a3.278,3.278,0,0,0-.525-1.915,1.808,1.808,0,0,0-1.537-.785,1.846,1.846,0,0,0-1.188.433,2.009,2.009,0,0,0-.695,1.138,2.36,2.36,0,0,0-.083.538v1.327A2.135,2.135,0,0,0,192.1,81.4a1.771,1.771,0,0,0,1.384.6,1.81,1.81,0,0,0,1.554-.769A3.384,3.384,0,0,0,195.592,79.2Zm12.032.916a2.946,2.946,0,0,1-.981,2.292,4.348,4.348,0,0,1-3.005.966,5.247,5.247,0,0,1-2.857-.687l.409-1.473a4.918,4.918,0,0,0,2.553.688,2.41,2.41,0,0,0,1.554-.45,1.47,1.47,0,0,0,.558-1.2,1.54,1.54,0,0,0-.459-1.13,4.258,4.258,0,0,0-1.522-.85q-2.9-1.08-2.9-3.159A2.789,2.789,0,0,1,202,72.884a4.046,4.046,0,0,1,2.709-.868,5.355,5.355,0,0,1,2.5.524l-.444,1.44a4.38,4.38,0,0,0-2.12-.507,2.156,2.156,0,0,0-1.462.458,1.311,1.311,0,0,0-.444,1,1.351,1.351,0,0,0,.508,1.08,5.725,5.725,0,0,0,1.6.85,5.436,5.436,0,0,1,2.095,1.341,2.794,2.794,0,0,1,.674,1.913Zm5.859-3.533h-1.948v3.861q0,1.473,1.031,1.472a3.105,3.105,0,0,0,.785-.082l.049,1.342a4.005,4.005,0,0,1-1.374.2,2.119,2.119,0,0,1-1.637-.639,3.133,3.133,0,0,1-.589-2.144V76.578h-1.161V75.252H209.8V73.8l1.736-.524v1.98h1.948Zm8.773,2.585a4.362,4.362,0,0,1-1.048,3.011,3.736,3.736,0,0,1-2.913,1.211,3.561,3.561,0,0,1-2.791-1.16,4.23,4.23,0,0,1-1.04-2.929,4.327,4.327,0,0,1,1.072-3.027,3.716,3.716,0,0,1,2.89-1.179,3.636,3.636,0,0,1,2.815,1.162A4.175,4.175,0,0,1,222.254,79.167Zm-1.832.041a3.561,3.561,0,0,0-.473-1.876,1.75,1.75,0,0,0-1.588-.947,1.775,1.775,0,0,0-1.621.947,3.619,3.619,0,0,0-.474,1.91,3.55,3.55,0,0,0,.474,1.877,1.813,1.813,0,0,0,3.194-.016,3.575,3.575,0,0,0,.488-1.895Zm7.58-2.4a3.075,3.075,0,0,0-.557-.049,1.668,1.668,0,0,0-1.441.7,2.653,2.653,0,0,0-.441,1.571v4.173H223.8V77.76q0-1.252-.051-2.5h1.539l.065,1.522h.049a2.728,2.728,0,0,1,.884-1.261,2.138,2.138,0,0,1,1.278-.426,2.84,2.84,0,0,1,.442.032Zm7.9,2.046a4.143,4.143,0,0,1-.065.8h-5.3a2.306,2.306,0,0,0,.769,1.8,2.631,2.631,0,0,0,1.734.555,5.866,5.866,0,0,0,2.146-.375l.277,1.226a6.635,6.635,0,0,1-2.667.491,3.867,3.867,0,0,1-2.907-1.087,4.02,4.02,0,0,1-1.055-2.921,4.555,4.555,0,0,1,.983-2.994,3.388,3.388,0,0,1,2.781-1.276,2.965,2.965,0,0,1,2.6,1.276A4.292,4.292,0,0,1,235.907,78.856Zm-1.685-.458a2.392,2.392,0,0,0-.343-1.358,1.544,1.544,0,0,0-1.408-.738,1.676,1.676,0,0,0-1.407.72,2.639,2.639,0,0,0-.523,1.374l3.681,0Z" transform="translate(-169.812 -72.016)"/></g><g transform="translate(36.21 5.431)"><path class="a" d="M176.077,31.969a11.289,11.289,0,0,1-1.271-.065V26.572a9.624,9.624,0,0,1,1.5-.113c2.027,0,2.96,1,2.96,2.622C179.263,30.957,178.161,31.969,176.077,31.969Zm.3-4.826a3.547,3.547,0,0,0-.7.056v4.054a4.589,4.589,0,0,0,.587.024,1.921,1.921,0,0,0,2.084-2.171A1.769,1.769,0,0,0,176.374,27.143Zm5.8,4.867A1.861,1.861,0,0,1,180.289,30a1.9,1.9,0,0,1,1.947-2.067,1.846,1.846,0,0,1,1.883,2A1.915,1.915,0,0,1,182.172,32.01Zm.033-3.443c-.628,0-1.03.587-1.03,1.407,0,.8.41,1.392,1.021,1.392s1.021-.627,1.021-1.408S182.816,28.567,182.205,28.567Zm8.429-.554-1.223,3.909h-.8l-.507-1.7a12.861,12.861,0,0,1-.314-1.262h-.017a8.459,8.459,0,0,1-.313,1.262l-.539,1.7h-.8l-1.151-3.909h.893l.443,1.858q.157.664.265,1.255h.017a12.872,12.872,0,0,1,.322-1.247l.555-1.866h.708l.531,1.826c.128.443.233.877.314,1.287h.023a11.244,11.244,0,0,1,.265-1.287l.475-1.826Zm4.5,3.909h-.869V29.677c0-.691-.265-1.038-.788-1.038a.9.9,0,0,0-.869.957v2.325h-.869V29.13c0-.346-.008-.716-.032-1.118h.764l.041.6h.024a1.4,1.4,0,0,1,1.239-.683c.821,0,1.36.627,1.36,1.648v2.341Zm2.4,0h-.87v-5.7h.87Zm3.168.089A1.861,1.861,0,0,1,198.816,30a1.9,1.9,0,0,1,1.947-2.067,1.845,1.845,0,0,1,1.883,2A1.915,1.915,0,0,1,200.7,32.01Zm.032-3.443c-.628,0-1.03.587-1.03,1.407,0,.8.411,1.392,1.021,1.392s1.021-.627,1.021-1.408S201.343,28.567,200.731,28.567Zm5.34,3.354-.063-.45h-.023a1.335,1.335,0,0,1-1.143.539,1.137,1.137,0,0,1-1.2-1.15c0-.965.836-1.464,2.285-1.464v-.072c0-.515-.273-.772-.812-.772a1.83,1.83,0,0,0-1.021.29l-.177-.571a2.5,2.5,0,0,1,1.342-.338c1.021,0,1.537.539,1.537,1.617v1.44a5.9,5.9,0,0,0,.056.933h-.783Zm-.119-1.947c-.965,0-1.449.234-1.449.788a.554.554,0,0,0,.6.611.832.832,0,0,0,.853-.8Zm5.065,1.947-.041-.627h-.024a1.311,1.311,0,0,1-1.255.716,1.781,1.781,0,0,1-1.641-1.995,1.855,1.855,0,0,1,1.712-2.084,1.175,1.175,0,0,1,1.1.531h.017V26.219h.87v4.649c0,.378.009.732.032,1.053Zm-.128-2.3a.946.946,0,0,0-.915-1.014c-.644,0-1.038.571-1.038,1.375,0,.788.409,1.328,1.021,1.328a.975.975,0,0,0,.933-1.038Zm6.383,2.389A1.86,1.86,0,0,1,215.39,30a1.9,1.9,0,0,1,1.947-2.067,1.845,1.845,0,0,1,1.883,2A1.914,1.914,0,0,1,217.272,32.01Zm.032-3.443c-.627,0-1.029.587-1.029,1.407,0,.8.41,1.392,1.021,1.392s1.021-.627,1.021-1.408S217.917,28.567,217.3,28.567Zm6.587,3.354h-.87V29.677c0-.691-.265-1.038-.788-1.038a.9.9,0,0,0-.868.957v2.325h-.87V29.13c0-.346-.008-.716-.032-1.118h.764l.041.6h.024a1.4,1.4,0,0,1,1.239-.684c.821,0,1.36.627,1.36,1.648Zm5.845-3.257h-.956v1.9c0,.483.167.724.506.724a1.712,1.712,0,0,0,.385-.041l.024.66a1.925,1.925,0,0,1-.674.1c-.685,0-1.094-.378-1.094-1.368V28.664h-.57v-.651h.57V27.3l.853-.258v.973h.956Zm4.6,3.257h-.868V29.694c0-.7-.264-1.053-.788-1.053a.852.852,0,0,0-.87.925v2.356h-.868v-5.7h.868v2.348h.017A1.318,1.318,0,0,1,233,27.931c.827,0,1.333.643,1.333,1.665Zm4.712-1.745h-2.607a1.122,1.122,0,0,0,1.232,1.158,2.937,2.937,0,0,0,1.054-.185l.135.6a3.264,3.264,0,0,1-1.312.241,1.815,1.815,0,0,1-1.947-1.97,1.909,1.909,0,0,1,1.849-2.1,1.642,1.642,0,0,1,1.626,1.858,1.672,1.672,0,0,1-.03.394Zm-.8-.619c0-.6-.3-1.029-.86-1.029a1.03,1.03,0,0,0-.95,1.029Z" transform="translate(-174.806 -26.219)"/></g></svg>