<svg xmlns="http://www.w3.org/2000/svg" width="33.96" height="28.279" viewBox="0 0 33.96 28.279"><defs><style>.a{fill:#fff;}</style></defs><g transform="translate(0 -0.164)"><path class="a" d="M27.972,5.179h-5.64c0-.057,0-.109,0-.166V1.765a1.6,1.6,0,0,0-1.6-1.6H13.207a1.6,1.6,0,0,0-1.592,1.6v3.22c0,.055,0,.109,0,.166H5.988C3.123,5.152,0,6.721,0,11.14V22.452c0,4.421,3.091,5.991,5.988,5.991H27.972c2.866,0,5.988-1.569,5.988-5.991V11.169C33.96,6.785,30.86,5.179,27.972,5.179ZM13.048,5.013V1.765a.165.165,0,0,1,.166-.164h7.539a.163.163,0,0,1,.164.164v3.22a.166.166,0,0,1-.164.166H13.207A.165.165,0,0,1,13.048,5.013ZM32.527,22.445c0,4.112-3.189,4.555-4.555,4.555H5.988c-1.367,0-4.555-.443-4.555-4.555V11.169c0-4.11,3.189-4.555,4.555-4.555H27.972c1.367,0,4.555.446,4.555,4.555Zm0,0"/><path class="a" d="M30.21,21.55H27.417V18.759a.716.716,0,0,0-.716-.716h-4.03a.716.716,0,0,0-.716.716V21.55H19.162a.72.72,0,0,0-.716.719v4.023a.72.72,0,0,0,.716.719h2.793V29.8a.716.716,0,0,0,.716.716H26.7a.716.716,0,0,0,.716-.716V27.011H30.21a.72.72,0,0,0,.716-.719V22.269A.72.72,0,0,0,30.21,21.55Zm-.719,4.026H26.7a.718.718,0,0,0-.716.716v2.793h-2.6V26.292a.718.718,0,0,0-.716-.716H19.88v-2.59h2.791a.718.718,0,0,0,.716-.716V19.476h2.6v2.793a.718.718,0,0,0,.716.716h2.791Zm0,0" transform="translate(-7.706 -7.469)"/></g></svg>