<svg xmlns="http://www.w3.org/2000/svg" width="25" height="25" viewBox="0 0 25 25"><defs><style>.a{fill:#1f4b6c;}.b{fill:#c9f4ff;}</style></defs><path class="a" d="M12.5,0A12.5,12.5,0,1,1,0,12.5,12.5,12.5,0,0,1,12.5,0Z" transform="translate(0 0)"/><g transform="translate(5.593 7.582)"><path class="b" d="M39.666,35.429a5.961,5.961,0,0,1-1.716.47,3,3,0,0,0,1.314-1.653,5.982,5.982,0,0,1-1.9.725A2.99,2.99,0,0,0,32.275,37.7a8.482,8.482,0,0,1-6.159-3.122,2.991,2.991,0,0,0,.924,3.989,2.967,2.967,0,0,1-1.353-.374c0,.013,0,.025,0,.038a2.99,2.99,0,0,0,2.4,2.929,3,3,0,0,1-1.349.052,2.991,2.991,0,0,0,2.791,2.075A6.032,6.032,0,0,1,25.1,44.521a8.5,8.5,0,0,0,13.081-7.159c0-.129,0-.258-.009-.386a6.059,6.059,0,0,0,1.491-1.546Z" transform="translate(-25.103 -34.028)"/></g></svg>