<svg xmlns="http://www.w3.org/2000/svg" width="25.01" height="25.01" viewBox="0 0 25.01 25.01"><defs><style>.a{fill:#1f4b6c;}.b{fill:#c9f4ff;}</style></defs><path class="a" d="M12.508,0H12.5A12.5,12.5,0,0,0,2.381,19.834L.822,24.48l4.807-1.537A12.5,12.5,0,1,0,12.508,0Z"/><path class="b" d="M121.809,129.027a3.529,3.529,0,0,1-2.454,1.765c-.653.139-1.507.25-4.38-.941-3.675-1.522-6.041-5.257-6.226-5.5a7.142,7.142,0,0,1-1.485-3.772,3.992,3.992,0,0,1,1.279-3.043,1.817,1.817,0,0,1,1.279-.449c.155,0,.294.008.419.014.367.016.552.038.794.617.3.727,1.036,2.521,1.124,2.706a.744.744,0,0,1,.053.677,2.161,2.161,0,0,1-.4.574c-.184.213-.36.375-.544.6-.169.2-.36.411-.147.778a11.1,11.1,0,0,0,2.029,2.521,9.193,9.193,0,0,0,2.932,1.809.791.791,0,0,0,.882-.139,15.129,15.129,0,0,0,.977-1.294.7.7,0,0,1,.9-.272c.338.117,2.124,1,2.492,1.183s.61.272.7.427A3.114,3.114,0,0,1,121.809,129.027Z" transform="translate(-102.024 -111.369)"/></svg>