<svg xmlns="http://www.w3.org/2000/svg" width="21.186" height="20.914" viewBox="0 0 21.186 20.914"><defs><style>.a,.b{fill:none;}.b{stroke:#1f4b6c;stroke-linecap:round;stroke-linejoin:round;}</style></defs><g transform="translate(-59.729 -258)"><rect class="a" width="20.914" height="20.914" transform="translate(60 258)"/><g transform="translate(27.345 -17.152)"><path class="b" d="M74.084,311.911l-3.951,1.936s-.143,5.632,3.951,7.629" transform="translate(-26.885 -26.005)"/><path class="b" d="M84.337,311.911l3.952,1.936s.143,5.632-3.952,7.629" transform="translate(-37.138 -26.005)"/><path class="b" d="M44.357,295.485H32.884v-19.6h11.2l4.4,4.5v4.679"/><line class="b" x2="7.9" transform="translate(36.57 283.097)"/><line class="b" x2="3.661" transform="translate(36.57 286.894)"/><line class="b" x2="3.688" transform="translate(36.57 290.691)"/><path class="b" d="M73.132,275.882v4.5h4.4" transform="translate(-29.051)"/><path class="b" d="M79.827,325.411l1.191,1.278,1.945-2.382" transform="translate(-33.883 -34.953)"/></g></g></svg>