<svg xmlns="http://www.w3.org/2000/svg" xmlns:xlink="http://www.w3.org/1999/xlink" width="54.748" height="55.477" viewBox="0 0 54.748 55.477"><defs><style>.a{fill:none;}.b{clip-path:url(#a);}.c{fill:#1f4b6c;}</style><clipPath id="a"><rect class="a" width="54.748" height="55.477"/></clipPath></defs><g class="b"><path class="c" d="M199.081,143.792a27.21,27.21,0,0,0-1.42-3.18q-.5-.949-1.065-1.854a27.59,27.59,0,0,0-9.085-8.916,2.09,2.09,0,0,1-.229,2.243,25.55,25.55,0,0,1,8.043,8.493l-7.113,10.195a4.576,4.576,0,0,0-1.821-.384,3.966,3.966,0,0,0-3.292,1.671,4.293,4.293,0,0,0,1.3,5.912,4.575,4.575,0,0,0,2.618.835,4.373,4.373,0,0,0,.6-.042,3.937,3.937,0,0,0,2.738-1.645,4.15,4.15,0,0,0-.562-5.239l6.54-9.374a25.346,25.346,0,1,1-45.876-.008l2.35,3.372-.148.148-.078.08a6.774,6.774,0,0,0-1.352,4.66,1.133,1.133,0,0,0,.387.775,11.646,11.646,0,0,0,2.991,6.661,4.1,4.1,0,0,0,2.856,1.5,6.181,6.181,0,0,0,3.178-1.372,1.431,1.431,0,0,0,.235.02,1.3,1.3,0,0,0,.935-.388,1.243,1.243,0,0,0,.027-1.755,1.2,1.2,0,0,0-.854-.349,1.269,1.269,0,0,0-.9.377,1.109,1.109,0,0,0-.311.563c-1.1.715-1.71,1.11-2.255,1.11-.487,0-.923-.317-1.611-1.005a10.337,10.337,0,0,1-2.513-5.606,1.216,1.216,0,0,0,.255-.761,4.436,4.436,0,0,1,.976-3.287,4.25,4.25,0,0,1,3.1-1.005l.174,0a1.306,1.306,0,0,0,.766-.228,10.39,10.39,0,0,1,5.637,2.487c1.452,1.453,1.214,1.824-.118,3.872a1.263,1.263,0,0,0-.6,2.087,1.2,1.2,0,0,0,.853.349,1.274,1.274,0,0,0,.9-.377,1.254,1.254,0,0,0,.386-1.119l.007-.011c1.346-2.121,2.318-3.655-.126-6.1A11.7,11.7,0,0,0,158.9,144.2a1.041,1.041,0,0,0-.765-.361h0c-.093,0-.186,0-.278,0a7.42,7.42,0,0,0-3.523.822l-2.852-4.091a25.56,25.56,0,0,1,8.192-8.591,2.1,2.1,0,0,1-.192-2.267,27.6,27.6,0,0,0-9.269,9.036q-.568.9-1.066,1.854a27.317,27.317,0,0,0-1.425,22.143,27.523,27.523,0,0,0,14.765,15.619,27.367,27.367,0,0,0,21.831,0,27.52,27.52,0,0,0,14.765-15.621,27.36,27.36,0,0,0,0-18.953Zm-10.443,12.125a1.84,1.84,0,0,1-1.3.765,2.3,2.3,0,0,1-.314.022,2.473,2.473,0,0,1-1.418-.458,2.2,2.2,0,0,1-.782-2.985,1.87,1.87,0,0,1,1.569-.772,2.463,2.463,0,0,1,.983.21l.519.226.385.4A2.057,2.057,0,0,1,188.638,155.917Z" transform="translate(-146.026 -125.166)"/><g transform="translate(12.392)"><path class="c" d="M200.417,126.576a.887.887,0,0,0-.05-.173.919.919,0,0,0-.028-.1l-2.635-5.087a.858.858,0,0,0-.091-.114.891.891,0,0,0-.113-.14.823.823,0,0,0-.14-.086.864.864,0,0,0-.149-.081.7.7,0,0,0-.5-.008.8.8,0,0,0-.145.033l-11.12,5.042-11.121-5.042a.781.781,0,0,0-.151-.035.867.867,0,0,0-.165-.039.852.852,0,0,0-.168.019.839.839,0,0,0-.165.028.885.885,0,0,0-.137.075.847.847,0,0,0-.152.093.92.92,0,0,0-.106.133.834.834,0,0,0-.1.12l-2.636,5.087a.847.847,0,0,0-.028.1.873.873,0,0,0-.05.174.847.847,0,0,0-.007.164.827.827,0,0,0,.019.165.873.873,0,0,0,.061.167.9.9,0,0,0,.036.1l7.4,11.976c.008.013.023.018.032.03a.86.86,0,0,0,.277.263c.008,0,.013.013.02.017h0a.871.871,0,0,0,.415.106h0c.019,0,.038-.007.057-.008a.864.864,0,0,0,.174-.024c.017,0,.033-.015.051-.021a.881.881,0,0,0,.17-.075l.007,0c.007,0,.01-.011.016-.015a.854.854,0,0,0,.206-.193c.017-.022.033-.043.048-.065s.03-.035.041-.056l.572-1.061L181.549,141,179.2,164.258c0,.013,0,.025,0,.039a.88.88,0,0,0,.011.182.89.89,0,0,0,.022.157.908.908,0,0,0,.068.139.863.863,0,0,0,.095.16c.008.01.011.023.019.033l5.462,6.049c.012.013.028.017.04.029s.019.031.034.044a.845.845,0,0,0,.156.093.815.815,0,0,0,.095.056.87.87,0,0,0,.327.068.881.881,0,0,0,.334-.071.865.865,0,0,0,.094-.058.851.851,0,0,0,.159-.1c.015-.013.02-.031.033-.045s.028-.016.04-.029l5.283-6.05c.007-.008.009-.018.015-.026a.889.889,0,0,0,.1-.168,1.074,1.074,0,0,0,.095-.473c0-.011,0-.021,0-.031l-2.337-23.149,1.508-3.011.541,1c.011.021.028.036.041.056s.031.044.048.065a.854.854,0,0,0,.206.193c.007,0,.01.011.016.015l.007,0a.881.881,0,0,0,.17.075c.017.006.033.017.051.021a.864.864,0,0,0,.174.024c.019,0,.038.008.057.008h0a.877.877,0,0,0,.415-.1l0,0c.005,0,.009-.008.014-.011a.853.853,0,0,0,.283-.268c.009-.013.024-.017.032-.03l7.4-11.976a.785.785,0,0,0,.036-.1.849.849,0,0,0,.061-.166.824.824,0,0,0,.019-.165A.842.842,0,0,0,200.417,126.576ZM178.67,136.93l-6.339-10.262,2.025-3.906,9.606,4.356Zm11.215,27.175-4.369,5-4.524-5.012,2.227-22.366h4.438Zm-1.939-24.13H183l-1.915-3.823,4.359-8.083,4.389,8.14Zm4.268-3.045-5.29-9.812,9.6-4.356,2.024,3.906Z" transform="translate(-170.459 -120.747)"/></g></g></svg>