<svg xmlns="http://www.w3.org/2000/svg" xmlns:xlink="http://www.w3.org/1999/xlink" width="37.259" height="37.755" viewBox="0 0 37.259 37.755"><defs><style>.a{fill:none;}.b{clip-path:url(#a);}.c{fill:#fff;}</style><clipPath id="a"><rect class="a" width="37.259" height="37.755"/></clipPath></defs><g class="b"><path class="c" d="M182.132,139.295a18.52,18.52,0,0,0-.966-2.164q-.339-.646-.725-1.262a18.776,18.776,0,0,0-6.182-6.068,1.423,1.423,0,0,1-.156,1.527,17.388,17.388,0,0,1,5.474,5.78l-4.841,6.938a3.114,3.114,0,0,0-1.239-.262,2.7,2.7,0,0,0-2.24,1.137,2.921,2.921,0,0,0,.888,4.023,3.113,3.113,0,0,0,1.781.568,2.976,2.976,0,0,0,.41-.029,2.68,2.68,0,0,0,1.863-1.12,2.824,2.824,0,0,0-.382-3.565l4.451-6.38a17.249,17.249,0,1,1-31.221-.005l1.6,2.295-.1.1-.053.054a4.61,4.61,0,0,0-.92,3.172.771.771,0,0,0,.264.527,7.926,7.926,0,0,0,2.035,4.533,2.793,2.793,0,0,0,1.944,1.021,4.206,4.206,0,0,0,2.163-.934.974.974,0,0,0,.16.013.888.888,0,0,0,.636-.264.846.846,0,0,0,.018-1.195.819.819,0,0,0-.581-.237.863.863,0,0,0-.613.256.755.755,0,0,0-.212.383c-.749.486-1.164.755-1.535.755-.332,0-.628-.216-1.1-.684a7.035,7.035,0,0,1-1.71-3.815.828.828,0,0,0,.173-.518,3.019,3.019,0,0,1,.664-2.237,2.892,2.892,0,0,1,2.112-.684h.118a.889.889,0,0,0,.522-.155,7.071,7.071,0,0,1,3.836,1.693c.988.989.826,1.241-.08,2.635a.86.86,0,0,0-.411,1.42.815.815,0,0,0,.58.237.867.867,0,0,0,.614-.256.853.853,0,0,0,.262-.762l0-.008c.916-1.444,1.578-2.487-.086-4.151a7.964,7.964,0,0,0-4.568-2.036.708.708,0,0,0-.521-.246h0l-.189,0a5.05,5.05,0,0,0-2.4.559l-1.941-2.784a17.4,17.4,0,0,1,5.575-5.846,1.426,1.426,0,0,1-.131-1.543,18.781,18.781,0,0,0-6.308,6.15q-.387.616-.726,1.262a18.591,18.591,0,0,0-.97,15.069,18.73,18.73,0,0,0,10.048,10.63,18.625,18.625,0,0,0,14.857,0,18.729,18.729,0,0,0,10.049-10.631,18.62,18.62,0,0,0,0-12.9Zm-7.107,8.252a1.252,1.252,0,0,1-.886.521,1.563,1.563,0,0,1-.214.015,1.683,1.683,0,0,1-.965-.312,1.5,1.5,0,0,1-.532-2.031,1.273,1.273,0,0,1,1.068-.526,1.676,1.676,0,0,1,.669.143l.353.154.262.275A1.4,1.4,0,0,1,175.026,147.546Z" transform="translate(-146.026 -126.618)"/><g transform="translate(8.433)"><path class="c" d="M190.847,124.714a.605.605,0,0,0-.034-.118.632.632,0,0,0-.019-.067L189,121.067a.584.584,0,0,0-.062-.077.606.606,0,0,0-.077-.1.559.559,0,0,0-.1-.059.588.588,0,0,0-.1-.055.474.474,0,0,0-.343-.005.541.541,0,0,0-.1.023l-7.568,3.431-7.568-3.431a.532.532,0,0,0-.1-.024.591.591,0,0,0-.113-.026.581.581,0,0,0-.114.013.57.57,0,0,0-.112.019.6.6,0,0,0-.094.051.577.577,0,0,0-.1.064.627.627,0,0,0-.072.091.567.567,0,0,0-.065.081l-1.794,3.462a.575.575,0,0,0-.019.066.594.594,0,0,0-.034.118.574.574,0,0,0,0,.112.563.563,0,0,0,.013.112.594.594,0,0,0,.042.114.613.613,0,0,0,.025.066l5.035,8.151c.006.009.016.012.022.021a.585.585,0,0,0,.188.179c.005,0,.009.009.014.011h0a.593.593,0,0,0,.283.072h0c.013,0,.026,0,.039-.006a.589.589,0,0,0,.118-.016c.012,0,.023-.01.034-.014a.6.6,0,0,0,.116-.051l0,0s.007-.007.011-.01a.581.581,0,0,0,.14-.131c.012-.015.023-.029.033-.045s.02-.024.028-.038l.389-.722,1.01,2.016-1.6,15.827c0,.009,0,.017,0,.026a.6.6,0,0,0,.008.124.6.6,0,0,0,.015.107.617.617,0,0,0,.046.095.586.586,0,0,0,.065.109c.006.007.007.016.013.023l3.717,4.117c.008.009.019.011.027.02s.013.021.023.03a.575.575,0,0,0,.106.063.556.556,0,0,0,.065.038.592.592,0,0,0,.222.046.6.6,0,0,0,.227-.048.59.59,0,0,0,.064-.039.579.579,0,0,0,.108-.066c.01-.009.014-.021.023-.031s.019-.011.027-.02l3.6-4.117c0-.006.006-.012.01-.018a.606.606,0,0,0,.066-.115.73.73,0,0,0,.065-.322c0-.007,0-.014,0-.021l-1.59-15.754,1.026-2.049.368.683c.008.014.019.025.028.038s.021.03.033.045a.58.58,0,0,0,.141.131s.007.008.011.01l0,0a.6.6,0,0,0,.116.051c.012,0,.023.011.035.014a.588.588,0,0,0,.118.016c.013,0,.026.006.039.006h0a.6.6,0,0,0,.283-.071h0l.009-.008a.581.581,0,0,0,.192-.183c.006-.009.016-.011.022-.02l5.034-8.151a.535.535,0,0,0,.025-.067.579.579,0,0,0,.042-.113.562.562,0,0,0,.013-.113A.571.571,0,0,0,190.847,124.714Zm-14.8,7.047-4.314-6.984,1.378-2.658,6.537,2.964Zm7.632,18.494-2.974,3.4-3.079-3.411,1.516-15.221h3.02Zm-1.32-16.421h-3.367l-1.3-2.6,2.966-5.5,2.987,5.54Zm2.9-2.072-3.6-6.677,6.537-2.964,1.377,2.658Z" transform="translate(-170.459 -120.747)"/></g></g></svg>